<mxfile host="Electron" modified="2023-05-03T15:03:52.936Z" agent="Mozilla/5.0 (Windows NT 10.0; Win64; x64) AppleWebKit/537.36 (KHTML, like Gecko) draw.io/21.2.1 Chrome/112.0.5615.87 Electron/24.1.2 Safari/537.36" etag="sgZvzBY60lMgjxOaQ8Na" version="21.2.1" type="device">
  <diagram name="Page-1" id="7oLeeqB4X83rpsUO6XK-">
    <mxGraphModel dx="2060" dy="1232" grid="0" gridSize="10" guides="1" tooltips="1" connect="1" arrows="1" fold="1" page="1" pageScale="1" pageWidth="827" pageHeight="1169" math="0" shadow="0">
      <root>
        <mxCell id="0" />
        <mxCell id="1" parent="0" />
        <UserObject label="" tags="Background" id="Cari82qWPhB8FJyJu9n--51">
          <mxCell style="vsdxID=190;fillColor=#345593;gradientColor=none;shape=stencil(nZBLDoAgDERP0z3SIyDew0QUooJB/N1eSGM0LFywm2lf23QAxarbRQFna/BuVIfpggasgXNjtfImRAUoAUXvvBq822xHfmkTmdTs9rThpDmWJji7yFWMfEPoZOwHfZpF8A9aCGbno3h/jCYPIJYoPJQ3);strokeColor=#233862;strokeWidth=2;points=[];labelBackgroundColor=none;rounded=1;html=1;whiteSpace=wrap;fontColor=#000000;fontFamily=Calibri;" parent="1" vertex="1">
            <mxGeometry x="38" y="753" width="345" height="400" as="geometry" />
          </mxCell>
        </UserObject>
        <UserObject label="" tags="Background" id="Cari82qWPhB8FJyJu9n--47">
          <mxCell style="vsdxID=148;fillColor=#345593;gradientColor=none;shape=stencil(nZBLDoAgDERP0z3SIyDew0QUooJB/N1eSGM0LFywm2lf23QAxarbRQFna/BuVIfpggasgXNjtfImRAUoAUXvvBq822xHfmkTmdTs9rThpDmWJji7yFWMfEPoZOwHfZpF8A9aCGbno3h/jCYPIJYoPJQ3);strokeColor=#233862;strokeWidth=2;points=[];labelBackgroundColor=none;rounded=1;html=1;whiteSpace=wrap;fontColor=#000000;fontFamily=Calibri;" parent="1" vertex="1">
            <mxGeometry x="420" y="71" width="345" height="400" as="geometry" />
          </mxCell>
        </UserObject>
        <UserObject label="&lt;div style=&quot;font-size: 11.29px;&quot;&gt;&lt;font style=&quot;font-size: 11.29px; direction: ltr; letter-spacing: 0px; line-height: 120%; opacity: 1;&quot;&gt;Start&lt;br style=&quot;font-size: 11.29px;&quot;&gt;&lt;/font&gt;&lt;/div&gt;" Function="EN_DIO_Error_T DIO_init(uint8_t pinNumber, EN_DIO_PORT_T portNumber, EN_DIO_DIRECTION_T direction);" tags="Flowchart" id="1slTTyNqEkX-o6a0FIB6-17">
          <mxCell style="verticalAlign=middle;align=center;overflow=width;vsdxID=30;fillColor=#dae8fc;shape=stencil(tVLREoIgEPwaHnEQxsl3s/9gEpSJwDko7e+DsEkze2l627vdu5uFRaxyHe8FosR5sCcxqMZ3iO0Rpcp0ApQPCLEasUpaEC3Yi2lS3fOojOhsr3HDmObyMtsVcYqS29Qh5FEfklwrM5OXeUa/yjkcAwfr7TDpiyTfXvjkMR+Vw2A998qaBac5tAKHU1hq3i4oNwjRr9ofvayt/+Rk+yX/4iWA159KpXWKxJx/z0Bopfyw+g4=);strokeColor=#6c8ebf;spacingTop=-1;spacingBottom=-1;spacingLeft=-1;spacingRight=-1;points=[[0.5,1,0],[0.5,0,0],[0,0.5,0],[1,0.5,0]];labelBackgroundColor=none;rounded=1;html=1;whiteSpace=wrap;fontFamily=Calibri;fontSize=11.29;" parent="1" vertex="1">
            <mxGeometry x="847" y="66" width="101" height="38" as="geometry" />
          </mxCell>
        </UserObject>
        <mxCell id="1slTTyNqEkX-o6a0FIB6-18" value="LCD INIT" style="text;html=1;strokeColor=none;fillColor=none;align=center;verticalAlign=middle;whiteSpace=wrap;rounded=0;fontSize=16;fontFamily=Calibri;" parent="1" vertex="1">
          <mxGeometry x="973" y="21" width="110" height="30" as="geometry" />
        </mxCell>
        <UserObject label="&lt;span style=&quot;font-size: 11.29px;&quot;&gt;LCD Data port init&lt;/span&gt;" Function="EN_DIO_Error_T DIO_toggle(uint8_t pinNumber, EN_DIO_PORT_T portNumber);  " tags="Flowchart" id="1slTTyNqEkX-o6a0FIB6-20">
          <mxCell style="verticalAlign=middle;align=center;overflow=width;vsdxID=274;fillColor=#d5e8d4;shape=stencil(nZBLDoAgDERP0z3SIyjew0SURgSD+Lu9kMZoXLhwN9O+tukAlrNpJg1SzDH4QW/URgNYgZTkjA4UkwJUgGXng+6DX1zLfmoymdXo17xh5zmRJ6Q42BWCfc2oJfdAr+Yv+AP9Cb7OJ3H/2JG1HNGz/84klThPVCc=);strokeColor=#82b366;spacingTop=-1;spacingBottom=-1;spacingLeft=-1;spacingRight=-1;points=[[0,0.5,0],[1,0.5,0],[0.5,1,0],[0.5,0,0]];labelBackgroundColor=none;rounded=1;html=1;whiteSpace=wrap;fontFamily=Calibri;fontSize=11.29;" parent="1" vertex="1">
            <mxGeometry x="847" y="131" width="101" height="33" as="geometry" />
          </mxCell>
        </UserObject>
        <mxCell id="1slTTyNqEkX-o6a0FIB6-69" value="" style="edgeStyle=none;curved=1;rounded=0;orthogonalLoop=1;jettySize=auto;html=1;fontSize=12;startSize=8;endSize=8;entryX=0.5;entryY=0;entryDx=0;entryDy=0;entryPerimeter=0;" parent="1" source="1slTTyNqEkX-o6a0FIB6-32" target="1slTTyNqEkX-o6a0FIB6-65" edge="1">
          <mxGeometry relative="1" as="geometry" />
        </mxCell>
        <UserObject label="&lt;span style=&quot;font-size: 11.29px;&quot;&gt;Init timer for LCD delays&lt;/span&gt;" Function="EN_DIO_Error_T DIO_toggle(uint8_t pinNumber, EN_DIO_PORT_T portNumber);  " tags="Flowchart" id="1slTTyNqEkX-o6a0FIB6-32">
          <mxCell style="verticalAlign=middle;align=center;overflow=width;vsdxID=274;fillColor=#d5e8d4;shape=stencil(nZBLDoAgDERP0z3SIyjew0SURgSD+Lu9kMZoXLhwN9O+tukAlrNpJg1SzDH4QW/URgNYgZTkjA4UkwJUgGXng+6DX1zLfmoymdXo17xh5zmRJ6Q42BWCfc2oJfdAr+Yv+AP9Cb7OJ3H/2JG1HNGz/84klThPVCc=);strokeColor=#82b366;spacingTop=-1;spacingBottom=-1;spacingLeft=-1;spacingRight=-1;points=[[0,0.5,0],[1,0.5,0],[0.5,1,0],[0.5,0,0]];labelBackgroundColor=none;rounded=1;html=1;whiteSpace=wrap;fontFamily=Calibri;fontSize=11.29;" parent="1" vertex="1">
            <mxGeometry x="846" y="245.5" width="101" height="33" as="geometry" />
          </mxCell>
        </UserObject>
        <mxCell id="1slTTyNqEkX-o6a0FIB6-68" value="" style="edgeStyle=none;curved=1;rounded=0;orthogonalLoop=1;jettySize=auto;html=1;fontSize=12;startSize=8;endSize=8;entryX=0.5;entryY=0;entryDx=0;entryDy=0;entryPerimeter=0;" parent="1" source="1slTTyNqEkX-o6a0FIB6-35" target="1slTTyNqEkX-o6a0FIB6-32" edge="1">
          <mxGeometry relative="1" as="geometry">
            <mxPoint x="901" y="238" as="targetPoint" />
          </mxGeometry>
        </mxCell>
        <mxCell id="1slTTyNqEkX-o6a0FIB6-35" value="Write 0 on &lt;br style=&quot;font-size: 11.29px;&quot;&gt;data port" style="shape=parallelogram;perimeter=parallelogramPerimeter;whiteSpace=wrap;html=1;fixedSize=1;fontSize=11.29;fontFamily=Calibri;fillColor=#e1d5e7;strokeColor=#9673a6;" parent="1" vertex="1">
          <mxGeometry x="836.5" y="185" width="120" height="38" as="geometry" />
        </mxCell>
        <mxCell id="1slTTyNqEkX-o6a0FIB6-48" value="&lt;font style=&quot;font-size: 14px;&quot;&gt;Setup LCD&lt;br&gt;&lt;/font&gt;" style="swimlane;whiteSpace=wrap;html=1;rounded=1;fontSize=16;fontFamily=Calibri;fillColor=#ffe6cc;strokeColor=#d79b00;" parent="1" vertex="1">
          <mxGeometry x="993" y="115" width="200" height="370.75" as="geometry">
            <mxRectangle x="-207" y="152.5" width="134" height="31" as="alternateBounds" />
          </mxGeometry>
        </mxCell>
        <mxCell id="1slTTyNqEkX-o6a0FIB6-75" style="edgeStyle=none;curved=1;rounded=0;orthogonalLoop=1;jettySize=auto;html=1;entryX=0.5;entryY=0;entryDx=0;entryDy=0;entryPerimeter=0;fontSize=12;startSize=8;endSize=8;" parent="1slTTyNqEkX-o6a0FIB6-48" source="1slTTyNqEkX-o6a0FIB6-54" target="1slTTyNqEkX-o6a0FIB6-55" edge="1">
          <mxGeometry relative="1" as="geometry" />
        </mxCell>
        <UserObject label="Return Home" Function="EN_DIO_Error_T DIO_toggle(uint8_t pinNumber, EN_DIO_PORT_T portNumber);  " tags="Flowchart" id="1slTTyNqEkX-o6a0FIB6-54">
          <mxCell style="verticalAlign=middle;align=center;overflow=width;vsdxID=274;fillColor=#d5e8d4;shape=stencil(nZBLDoAgDERP0z3SIyjew0SURgSD+Lu9kMZoXLhwN9O+tukAlrNpJg1SzDH4QW/URgNYgZTkjA4UkwJUgGXng+6DX1zLfmoymdXo17xh5zmRJ6Q42BWCfc2oJfdAr+Yv+AP9Cb7OJ3H/2JG1HNGz/84klThPVCc=);strokeColor=#82b366;spacingTop=-1;spacingBottom=-1;spacingLeft=-1;spacingRight=-1;points=[[0,0.5,0],[1,0.5,0],[0.5,1,0],[0.5,0,0]];labelBackgroundColor=none;rounded=1;html=1;whiteSpace=wrap;fontFamily=Calibri;fontSize=11.29;" parent="1slTTyNqEkX-o6a0FIB6-48" vertex="1">
            <mxGeometry x="49.5" y="30" width="101" height="33" as="geometry" />
          </mxCell>
        </UserObject>
        <mxCell id="1slTTyNqEkX-o6a0FIB6-76" style="edgeStyle=none;curved=1;rounded=0;orthogonalLoop=1;jettySize=auto;html=1;entryX=0.5;entryY=0;entryDx=0;entryDy=0;entryPerimeter=0;fontSize=12;startSize=8;endSize=8;" parent="1slTTyNqEkX-o6a0FIB6-48" source="1slTTyNqEkX-o6a0FIB6-55" target="1slTTyNqEkX-o6a0FIB6-56" edge="1">
          <mxGeometry relative="1" as="geometry" />
        </mxCell>
        <UserObject label="4 Bit Mode&lt;br style=&quot;font-size: 11.29px;&quot;&gt;2 Lines&lt;br style=&quot;font-size: 11.29px;&quot;&gt;5*7 Matrix" Function="EN_DIO_Error_T DIO_toggle(uint8_t pinNumber, EN_DIO_PORT_T portNumber);  " tags="Flowchart" id="1slTTyNqEkX-o6a0FIB6-55">
          <mxCell style="verticalAlign=middle;align=center;overflow=width;vsdxID=274;fillColor=#d5e8d4;shape=stencil(nZBLDoAgDERP0z3SIyjew0SURgSD+Lu9kMZoXLhwN9O+tukAlrNpJg1SzDH4QW/URgNYgZTkjA4UkwJUgGXng+6DX1zLfmoymdXo17xh5zmRJ6Q42BWCfc2oJfdAr+Yv+AP9Cb7OJ3H/2JG1HNGz/84klThPVCc=);strokeColor=#82b366;spacingTop=-1;spacingBottom=-1;spacingLeft=-1;spacingRight=-1;points=[[0,0.5,0],[1,0.5,0],[0.5,1,0],[0.5,0,0]];labelBackgroundColor=none;rounded=1;html=1;whiteSpace=wrap;fontFamily=Calibri;fontSize=11.29;" parent="1slTTyNqEkX-o6a0FIB6-48" vertex="1">
            <mxGeometry x="49.5" y="83" width="101" height="47.5" as="geometry" />
          </mxCell>
        </UserObject>
        <mxCell id="1slTTyNqEkX-o6a0FIB6-77" style="edgeStyle=none;curved=1;rounded=0;orthogonalLoop=1;jettySize=auto;html=1;entryX=0.5;entryY=0;entryDx=0;entryDy=0;entryPerimeter=0;fontSize=12;startSize=8;endSize=8;" parent="1slTTyNqEkX-o6a0FIB6-48" source="1slTTyNqEkX-o6a0FIB6-56" target="1slTTyNqEkX-o6a0FIB6-57" edge="1">
          <mxGeometry relative="1" as="geometry" />
        </mxCell>
        <UserObject label="4 Bit Mode&lt;br style=&quot;font-size: 11.29px;&quot;&gt;2 Lines&lt;br style=&quot;font-size: 11.29px;&quot;&gt;5*7 Matrix" Function="EN_DIO_Error_T DIO_toggle(uint8_t pinNumber, EN_DIO_PORT_T portNumber);  " tags="Flowchart" id="1slTTyNqEkX-o6a0FIB6-56">
          <mxCell style="verticalAlign=middle;align=center;overflow=width;vsdxID=274;fillColor=#d5e8d4;shape=stencil(nZBLDoAgDERP0z3SIyjew0SURgSD+Lu9kMZoXLhwN9O+tukAlrNpJg1SzDH4QW/URgNYgZTkjA4UkwJUgGXng+6DX1zLfmoymdXo17xh5zmRJ6Q42BWCfc2oJfdAr+Yv+AP9Cb7OJ3H/2JG1HNGz/84klThPVCc=);strokeColor=#82b366;spacingTop=-1;spacingBottom=-1;spacingLeft=-1;spacingRight=-1;points=[[0,0.5,0],[1,0.5,0],[0.5,1,0],[0.5,0,0]];labelBackgroundColor=none;rounded=1;html=1;whiteSpace=wrap;fontFamily=Calibri;fontSize=11.29;" parent="1slTTyNqEkX-o6a0FIB6-48" vertex="1">
            <mxGeometry x="49.5" y="151" width="101" height="47.5" as="geometry" />
          </mxCell>
        </UserObject>
        <mxCell id="1slTTyNqEkX-o6a0FIB6-78" style="edgeStyle=none;curved=1;rounded=0;orthogonalLoop=1;jettySize=auto;html=1;entryX=0.5;entryY=0;entryDx=0;entryDy=0;entryPerimeter=0;fontSize=12;startSize=8;endSize=8;" parent="1slTTyNqEkX-o6a0FIB6-48" source="1slTTyNqEkX-o6a0FIB6-57" target="1slTTyNqEkX-o6a0FIB6-58" edge="1">
          <mxGeometry relative="1" as="geometry" />
        </mxCell>
        <UserObject label="Display (on/off)&lt;br style=&quot;font-size: 11.29px;&quot;&gt;Cursor (on/off)&lt;br style=&quot;font-size: 11.29px;&quot;&gt;Blink (on/off)" Function="EN_DIO_Error_T DIO_toggle(uint8_t pinNumber, EN_DIO_PORT_T portNumber);  " tags="Flowchart" id="1slTTyNqEkX-o6a0FIB6-57">
          <mxCell style="verticalAlign=middle;align=center;overflow=width;vsdxID=274;fillColor=#d5e8d4;shape=stencil(nZBLDoAgDERP0z3SIyjew0SURgSD+Lu9kMZoXLhwN9O+tukAlrNpJg1SzDH4QW/URgNYgZTkjA4UkwJUgGXng+6DX1zLfmoymdXo17xh5zmRJ6Q42BWCfc2oJfdAr+Yv+AP9Cb7OJ3H/2JG1HNGz/84klThPVCc=);strokeColor=#82b366;spacingTop=-1;spacingBottom=-1;spacingLeft=-1;spacingRight=-1;points=[[0,0.5,0],[1,0.5,0],[0.5,1,0],[0.5,0,0]];labelBackgroundColor=none;rounded=1;html=1;whiteSpace=wrap;fontFamily=Calibri;fontSize=11.29;" parent="1slTTyNqEkX-o6a0FIB6-48" vertex="1">
            <mxGeometry x="49.5" y="219" width="101" height="47.5" as="geometry" />
          </mxCell>
        </UserObject>
        <mxCell id="1slTTyNqEkX-o6a0FIB6-79" style="edgeStyle=none;curved=1;rounded=0;orthogonalLoop=1;jettySize=auto;html=1;entryX=0.5;entryY=0;entryDx=0;entryDy=0;entryPerimeter=0;fontSize=12;startSize=8;endSize=8;" parent="1slTTyNqEkX-o6a0FIB6-48" source="1slTTyNqEkX-o6a0FIB6-58" target="1slTTyNqEkX-o6a0FIB6-59" edge="1">
          <mxGeometry relative="1" as="geometry" />
        </mxCell>
        <UserObject label="Inc cursor right" Function="EN_DIO_Error_T DIO_toggle(uint8_t pinNumber, EN_DIO_PORT_T portNumber);  " tags="Flowchart" id="1slTTyNqEkX-o6a0FIB6-58">
          <mxCell style="verticalAlign=middle;align=center;overflow=width;vsdxID=274;fillColor=#d5e8d4;shape=stencil(nZBLDoAgDERP0z3SIyjew0SURgSD+Lu9kMZoXLhwN9O+tukAlrNpJg1SzDH4QW/URgNYgZTkjA4UkwJUgGXng+6DX1zLfmoymdXo17xh5zmRJ6Q42BWCfc2oJfdAr+Yv+AP9Cb7OJ3H/2JG1HNGz/84klThPVCc=);strokeColor=#82b366;spacingTop=-1;spacingBottom=-1;spacingLeft=-1;spacingRight=-1;points=[[0,0.5,0],[1,0.5,0],[0.5,1,0],[0.5,0,0]];labelBackgroundColor=none;rounded=1;html=1;whiteSpace=wrap;fontFamily=Calibri;fontSize=11.29;" parent="1slTTyNqEkX-o6a0FIB6-48" vertex="1">
            <mxGeometry x="49.5" y="287" width="101" height="27.5" as="geometry" />
          </mxCell>
        </UserObject>
        <UserObject label="Clear Disp" Function="EN_DIO_Error_T DIO_toggle(uint8_t pinNumber, EN_DIO_PORT_T portNumber);  " tags="Flowchart" id="1slTTyNqEkX-o6a0FIB6-59">
          <mxCell style="verticalAlign=middle;align=center;overflow=width;vsdxID=274;fillColor=#d5e8d4;shape=stencil(nZBLDoAgDERP0z3SIyjew0SURgSD+Lu9kMZoXLhwN9O+tukAlrNpJg1SzDH4QW/URgNYgZTkjA4UkwJUgGXng+6DX1zLfmoymdXo17xh5zmRJ6Q42BWCfc2oJfdAr+Yv+AP9Cb7OJ3H/2JG1HNGz/84klThPVCc=);strokeColor=#82b366;spacingTop=-1;spacingBottom=-1;spacingLeft=-1;spacingRight=-1;points=[[0,0.5,0],[1,0.5,0],[0.5,1,0],[0.5,0,0]];labelBackgroundColor=none;rounded=1;html=1;whiteSpace=wrap;fontFamily=Calibri;fontSize=11.29;" parent="1slTTyNqEkX-o6a0FIB6-48" vertex="1">
            <mxGeometry x="49.5" y="335" width="101" height="27.5" as="geometry" />
          </mxCell>
        </UserObject>
        <mxCell id="1slTTyNqEkX-o6a0FIB6-72" value="" style="edgeStyle=none;curved=1;rounded=0;orthogonalLoop=1;jettySize=auto;html=1;fontSize=12;startSize=8;endSize=8;entryX=0.5;entryY=0;entryDx=0;entryDy=0;entryPerimeter=0;" parent="1" source="1slTTyNqEkX-o6a0FIB6-60" target="1slTTyNqEkX-o6a0FIB6-61" edge="1">
          <mxGeometry relative="1" as="geometry" />
        </mxCell>
        <UserObject label="wait 10 ms&lt;br&gt;(init delay)" Function="EN_DIO_Error_T DIO_toggle(uint8_t pinNumber, EN_DIO_PORT_T portNumber);  " tags="Flowchart" id="1slTTyNqEkX-o6a0FIB6-60">
          <mxCell style="verticalAlign=middle;align=center;overflow=width;vsdxID=274;fillColor=#d5e8d4;shape=stencil(nZBLDoAgDERP0z3SIyjew0SURgSD+Lu9kMZoXLhwN9O+tukAlrNpJg1SzDH4QW/URgNYgZTkjA4UkwJUgGXng+6DX1zLfmoymdXo17xh5zmRJ6Q42BWCfc2oJfdAr+Yv+AP9Cb7OJ3H/2JG1HNGz/84klThPVCc=);strokeColor=#82b366;spacingTop=-1;spacingBottom=-1;spacingLeft=-1;spacingRight=-1;points=[[0,0.5,0],[1,0.5,0],[0.5,1,0],[0.5,0,0]];labelBackgroundColor=none;rounded=1;html=1;whiteSpace=wrap;fontFamily=Calibri;fontSize=11.29;" parent="1" vertex="1">
            <mxGeometry x="846" y="361" width="101" height="33" as="geometry" />
          </mxCell>
        </UserObject>
        <mxCell id="1slTTyNqEkX-o6a0FIB6-73" value="" style="edgeStyle=none;curved=1;rounded=0;orthogonalLoop=1;jettySize=auto;html=1;fontSize=12;startSize=8;endSize=8;entryX=0.5;entryY=0;entryDx=0;entryDy=0;entryPerimeter=0;" parent="1" source="1slTTyNqEkX-o6a0FIB6-61" target="1slTTyNqEkX-o6a0FIB6-62" edge="1">
          <mxGeometry relative="1" as="geometry" />
        </mxCell>
        <UserObject label="Store bell shape&lt;br style=&quot;font-size: 11.29px;&quot;&gt;in CG RAM" Function="EN_DIO_Error_T DIO_toggle(uint8_t pinNumber, EN_DIO_PORT_T portNumber);  " tags="Flowchart" id="1slTTyNqEkX-o6a0FIB6-61">
          <mxCell style="verticalAlign=middle;align=center;overflow=width;vsdxID=274;fillColor=#d5e8d4;shape=stencil(nZBLDoAgDERP0z3SIyjew0SURgSD+Lu9kMZoXLhwN9O+tukAlrNpJg1SzDH4QW/URgNYgZTkjA4UkwJUgGXng+6DX1zLfmoymdXo17xh5zmRJ6Q42BWCfc2oJfdAr+Yv+AP9Cb7OJ3H/2JG1HNGz/84klThPVCc=);strokeColor=#82b366;spacingTop=-1;spacingBottom=-1;spacingLeft=-1;spacingRight=-1;points=[[0,0.5,0],[1,0.5,0],[0.5,1,0],[0.5,0,0]];labelBackgroundColor=none;rounded=1;html=1;whiteSpace=wrap;fontFamily=Calibri;fontSize=11.29;" parent="1" vertex="1">
            <mxGeometry x="846" y="416" width="101" height="33" as="geometry" />
          </mxCell>
        </UserObject>
        <mxCell id="1slTTyNqEkX-o6a0FIB6-74" style="edgeStyle=none;curved=1;rounded=0;orthogonalLoop=1;jettySize=auto;html=1;entryX=0.5;entryY=0;entryDx=0;entryDy=0;entryPerimeter=0;fontSize=12;startSize=8;endSize=8;" parent="1" source="1slTTyNqEkX-o6a0FIB6-62" target="1slTTyNqEkX-o6a0FIB6-64" edge="1">
          <mxGeometry relative="1" as="geometry" />
        </mxCell>
        <UserObject label="Set Cursor to 0,0" Function="EN_DIO_Error_T DIO_toggle(uint8_t pinNumber, EN_DIO_PORT_T portNumber);  " tags="Flowchart" id="1slTTyNqEkX-o6a0FIB6-62">
          <mxCell style="verticalAlign=middle;align=center;overflow=width;vsdxID=274;fillColor=#d5e8d4;shape=stencil(nZBLDoAgDERP0z3SIyjew0SURgSD+Lu9kMZoXLhwN9O+tukAlrNpJg1SzDH4QW/URgNYgZTkjA4UkwJUgGXng+6DX1zLfmoymdXo17xh5zmRJ6Q42BWCfc2oJfdAr+Yv+AP9Cb7OJ3H/2JG1HNGz/84klThPVCc=);strokeColor=#82b366;spacingTop=-1;spacingBottom=-1;spacingLeft=-1;spacingRight=-1;points=[[0,0.5,0],[1,0.5,0],[0.5,1,0],[0.5,0,0]];labelBackgroundColor=none;rounded=1;html=1;whiteSpace=wrap;fontFamily=Calibri;fontSize=11.29;" parent="1" vertex="1">
            <mxGeometry x="846" y="468" width="101" height="33" as="geometry" />
          </mxCell>
        </UserObject>
        <UserObject label="&lt;div style=&quot;font-size: 11.29px;&quot;&gt;&lt;font style=&quot;font-size: 11.29px; direction: ltr; letter-spacing: 0px; line-height: 120%; opacity: 1;&quot;&gt;END&lt;br style=&quot;font-size: 11.29px;&quot;&gt;&lt;/font&gt;&lt;/div&gt;" Function="EN_DIO_Error_T DIO_init(uint8_t pinNumber, EN_DIO_PORT_T portNumber, EN_DIO_DIRECTION_T direction);" tags="Flowchart" id="1slTTyNqEkX-o6a0FIB6-64">
          <mxCell style="verticalAlign=middle;align=center;overflow=width;vsdxID=52;fillColor=#dae8fc;shape=stencil(tVLREoIgEPwaHnEQxsl3s/9gEpSJwDko7e+DsEkze2l627vdu5uFRaxyHe8FosR5sCcxqMZ3iO0Rpcp0ApQPCLEasUpaEC3Yi2lS3fOojOhsr3HDmObyMtsVcYqS29Qh5FEfklwrM5OXeUa/yjkcAwfr7TDpiyTfXvjkMR+Vw2A998qaBac5tAKHU1hq3i4oNwjRr9ofvayt/+Rk+yX/4iWA159KpXWKxJx/z0Bopfyw+g4=);strokeColor=#6c8ebf;spacingTop=-1;spacingBottom=-1;spacingLeft=-1;spacingRight=-1;points=[[0.5,1,0],[0.5,0,0],[0,0.5,0],[1,0.5,0]];labelBackgroundColor=none;rounded=1;html=1;whiteSpace=wrap;fontFamily=Calibri;fontSize=11.29;" parent="1" vertex="1">
            <mxGeometry x="846" y="522" width="101" height="38" as="geometry" />
          </mxCell>
        </UserObject>
        <mxCell id="1slTTyNqEkX-o6a0FIB6-70" value="" style="edgeStyle=none;curved=1;rounded=0;orthogonalLoop=1;jettySize=auto;html=1;fontSize=12;startSize=8;endSize=8;entryX=0.5;entryY=0;entryDx=0;entryDy=0;entryPerimeter=0;" parent="1" source="1slTTyNqEkX-o6a0FIB6-65" target="1slTTyNqEkX-o6a0FIB6-60" edge="1">
          <mxGeometry relative="1" as="geometry" />
        </mxCell>
        <UserObject label="&lt;div style=&quot;font-size: 1px&quot;&gt;&lt;font style=&quot;font-size: 11.29px; direction: ltr; letter-spacing: 0px; line-height: 120%; opacity: 1;&quot;&gt;Setup LCD&lt;br&gt;&lt;/font&gt;&lt;/div&gt;" Function="EN_DIO_Error_T DIO_write(uint8_t pinNumber, EN_DIO_PORT_T portNumber, uint8_t value); " tags="Flowchart" id="1slTTyNqEkX-o6a0FIB6-65">
          <mxCell style="verticalAlign=middle;align=center;overflow=width;vsdxID=235;shape=stencil(nZLRDsIgDEW/pq+GlRh9n/M/loyNRoSFodO/F9JMHWYm29u99LTkFkCWg657BSiG4N1FjdQEDfIEiGS18hSiAlmBLFvnVefdzTbs+zqRSV3dPU14cJ9IHSie7ArB/syoIfuFTsVN8B90I5hdH8UnY0vG8Ire9aUFFLjbr4iV0zN2Pvl4WDP5h15OlyWLIn/teMQ/RVYv);spacingTop=-1;spacingBottom=-1;spacingLeft=-1;spacingRight=-1;points=[[0,0.5,0],[1,0.5,0],[0.5,1,0],[0.5,0,0]];labelBackgroundColor=none;rounded=1;html=1;whiteSpace=wrap;fillColor=#ffe6cc;strokeColor=#d79b00;fontFamily=Calibri;" parent="1" vertex="1">
            <mxGeometry x="846" y="299" width="101" height="35" as="geometry" />
          </mxCell>
        </UserObject>
        <mxCell id="1slTTyNqEkX-o6a0FIB6-66" value="" style="endArrow=classic;html=1;rounded=0;fontSize=12;startSize=8;endSize=8;curved=1;entryX=0.5;entryY=0;entryDx=0;entryDy=0;entryPerimeter=0;exitX=0.5;exitY=1;exitDx=0;exitDy=0;exitPerimeter=0;" parent="1" source="1slTTyNqEkX-o6a0FIB6-17" target="1slTTyNqEkX-o6a0FIB6-20" edge="1">
          <mxGeometry width="50" height="50" relative="1" as="geometry">
            <mxPoint x="765" y="154" as="sourcePoint" />
            <mxPoint x="815" y="104" as="targetPoint" />
          </mxGeometry>
        </mxCell>
        <mxCell id="1slTTyNqEkX-o6a0FIB6-67" value="" style="endArrow=classic;html=1;rounded=0;fontSize=12;startSize=8;endSize=8;curved=1;entryX=0.5;entryY=0;entryDx=0;entryDy=0;exitX=0.485;exitY=1.004;exitDx=0;exitDy=0;exitPerimeter=0;" parent="1" source="1slTTyNqEkX-o6a0FIB6-20" target="1slTTyNqEkX-o6a0FIB6-35" edge="1">
          <mxGeometry width="50" height="50" relative="1" as="geometry">
            <mxPoint x="981" y="170" as="sourcePoint" />
            <mxPoint x="981" y="197" as="targetPoint" />
          </mxGeometry>
        </mxCell>
        <UserObject label="&lt;div style=&quot;font-size: 11.29px;&quot;&gt;&lt;font style=&quot;font-size: 11.29px; direction: ltr; letter-spacing: 0px; line-height: 120%; opacity: 1;&quot;&gt;Start&lt;br style=&quot;font-size: 11.29px;&quot;&gt;&lt;/font&gt;&lt;/div&gt;" Function="EN_DIO_Error_T DIO_init(uint8_t pinNumber, EN_DIO_PORT_T portNumber, EN_DIO_DIRECTION_T direction);" tags="Flowchart" id="1slTTyNqEkX-o6a0FIB6-80">
          <mxCell style="verticalAlign=middle;align=center;overflow=width;vsdxID=30;fillColor=#dae8fc;shape=stencil(tVLREoIgEPwaHnEQxsl3s/9gEpSJwDko7e+DsEkze2l627vdu5uFRaxyHe8FosR5sCcxqMZ3iO0Rpcp0ApQPCLEasUpaEC3Yi2lS3fOojOhsr3HDmObyMtsVcYqS29Qh5FEfklwrM5OXeUa/yjkcAwfr7TDpiyTfXvjkMR+Vw2A998qaBac5tAKHU1hq3i4oNwjRr9ofvayt/+Rk+yX/4iWA159KpXWKxJx/z0Bopfyw+g4=);strokeColor=#6c8ebf;spacingTop=-1;spacingBottom=-1;spacingLeft=-1;spacingRight=-1;points=[[0.5,1,0],[0.5,0,0],[0,0.5,0],[1,0.5,0]];labelBackgroundColor=none;rounded=1;html=1;whiteSpace=wrap;fontFamily=Calibri;fontSize=11.29;" parent="1" vertex="1">
            <mxGeometry x="1273.5" y="61" width="101" height="38" as="geometry" />
          </mxCell>
        </UserObject>
        <mxCell id="1slTTyNqEkX-o6a0FIB6-81" value="LCD sendCommand" style="text;html=1;strokeColor=none;fillColor=none;align=center;verticalAlign=middle;whiteSpace=wrap;rounded=0;fontSize=16;fontFamily=Calibri;" parent="1" vertex="1">
          <mxGeometry x="1399.5" y="16" width="169.5" height="30" as="geometry" />
        </mxCell>
        <UserObject label="&lt;span style=&quot;font-size: 11.29px;&quot;&gt;Select Command&lt;br&gt;Register&lt;br&gt;&lt;/span&gt;" Function="EN_DIO_Error_T DIO_toggle(uint8_t pinNumber, EN_DIO_PORT_T portNumber);  " tags="Flowchart" id="1slTTyNqEkX-o6a0FIB6-82">
          <mxCell style="verticalAlign=middle;align=center;overflow=width;vsdxID=274;fillColor=#d5e8d4;shape=stencil(nZBLDoAgDERP0z3SIyjew0SURgSD+Lu9kMZoXLhwN9O+tukAlrNpJg1SzDH4QW/URgNYgZTkjA4UkwJUgGXng+6DX1zLfmoymdXo17xh5zmRJ6Q42BWCfc2oJfdAr+Yv+AP9Cb7OJ3H/2JG1HNGz/84klThPVCc=);strokeColor=#82b366;spacingTop=-1;spacingBottom=-1;spacingLeft=-1;spacingRight=-1;points=[[0,0.5,0],[1,0.5,0],[0.5,1,0],[0.5,0,0]];labelBackgroundColor=none;rounded=1;html=1;whiteSpace=wrap;fontFamily=Calibri;fontSize=11.29;" parent="1" vertex="1">
            <mxGeometry x="1273.5" y="126" width="101" height="33" as="geometry" />
          </mxCell>
        </UserObject>
        <mxCell id="1slTTyNqEkX-o6a0FIB6-83" value="" style="edgeStyle=none;curved=1;rounded=0;orthogonalLoop=1;jettySize=auto;html=1;fontSize=12;startSize=8;endSize=8;entryX=0.5;entryY=0;entryDx=0;entryDy=0;entryPerimeter=0;exitX=0.5;exitY=1;exitDx=0;exitDy=0;" parent="1" source="1slTTyNqEkX-o6a0FIB6-86" target="1slTTyNqEkX-o6a0FIB6-107" edge="1">
          <mxGeometry relative="1" as="geometry">
            <mxPoint x="1323" y="273.4999999999999" as="sourcePoint" />
          </mxGeometry>
        </mxCell>
        <mxCell id="1slTTyNqEkX-o6a0FIB6-86" value="write higher nibble&lt;br&gt;cmd on data port" style="shape=parallelogram;perimeter=parallelogramPerimeter;whiteSpace=wrap;html=1;fixedSize=1;fontSize=11.29;fontFamily=Calibri;fillColor=#e1d5e7;strokeColor=#9673a6;" parent="1" vertex="1">
          <mxGeometry x="1263" y="180" width="120" height="38" as="geometry" />
        </mxCell>
        <mxCell id="1slTTyNqEkX-o6a0FIB6-87" value="&lt;font style=&quot;font-size: 14px;&quot;&gt;Generate Pulse&lt;br&gt;&lt;/font&gt;" style="swimlane;whiteSpace=wrap;html=1;rounded=1;fontSize=16;fontFamily=Calibri;fillColor=#ffe6cc;strokeColor=#d79b00;" parent="1" vertex="1">
          <mxGeometry x="1419.5" y="110" width="200" height="214" as="geometry">
            <mxRectangle x="-207" y="152.5" width="134" height="31" as="alternateBounds" />
          </mxGeometry>
        </mxCell>
        <mxCell id="1slTTyNqEkX-o6a0FIB6-88" style="edgeStyle=none;curved=1;rounded=0;orthogonalLoop=1;jettySize=auto;html=1;entryX=0.5;entryY=0;entryDx=0;entryDy=0;entryPerimeter=0;fontSize=12;startSize=8;endSize=8;" parent="1slTTyNqEkX-o6a0FIB6-87" target="1slTTyNqEkX-o6a0FIB6-91" edge="1">
          <mxGeometry relative="1" as="geometry">
            <mxPoint x="100" y="63" as="sourcePoint" />
          </mxGeometry>
        </mxCell>
        <mxCell id="1slTTyNqEkX-o6a0FIB6-90" style="edgeStyle=none;curved=1;rounded=0;orthogonalLoop=1;jettySize=auto;html=1;entryX=0.5;entryY=0;entryDx=0;entryDy=0;fontSize=12;startSize=8;endSize=8;" parent="1slTTyNqEkX-o6a0FIB6-87" source="1slTTyNqEkX-o6a0FIB6-91" target="1slTTyNqEkX-o6a0FIB6-111" edge="1">
          <mxGeometry relative="1" as="geometry">
            <mxPoint x="100" y="151" as="targetPoint" />
          </mxGeometry>
        </mxCell>
        <UserObject label="wait 1 µs" Function="EN_DIO_Error_T DIO_toggle(uint8_t pinNumber, EN_DIO_PORT_T portNumber);  " tags="Flowchart" id="1slTTyNqEkX-o6a0FIB6-91">
          <mxCell style="verticalAlign=middle;align=center;overflow=width;vsdxID=274;fillColor=#d5e8d4;shape=stencil(nZBLDoAgDERP0z3SIyjew0SURgSD+Lu9kMZoXLhwN9O+tukAlrNpJg1SzDH4QW/URgNYgZTkjA4UkwJUgGXng+6DX1zLfmoymdXo17xh5zmRJ6Q42BWCfc2oJfdAr+Yv+AP9Cb7OJ3H/2JG1HNGz/84klThPVCc=);strokeColor=#82b366;spacingTop=-1;spacingBottom=-1;spacingLeft=-1;spacingRight=-1;points=[[0,0.5,0],[1,0.5,0],[0.5,1,0],[0.5,0,0]];labelBackgroundColor=none;rounded=1;html=1;whiteSpace=wrap;fontFamily=Calibri;fontSize=11.29;" parent="1slTTyNqEkX-o6a0FIB6-87" vertex="1">
            <mxGeometry x="49.5" y="83" width="101" height="23" as="geometry" />
          </mxCell>
        </UserObject>
        <mxCell id="1slTTyNqEkX-o6a0FIB6-110" value="write 1 on EN pin" style="shape=parallelogram;perimeter=parallelogramPerimeter;whiteSpace=wrap;html=1;fixedSize=1;fontSize=11.29;fontFamily=Calibri;fillColor=#e1d5e7;strokeColor=#9673a6;" parent="1slTTyNqEkX-o6a0FIB6-87" vertex="1">
          <mxGeometry x="40" y="31" width="120" height="31" as="geometry" />
        </mxCell>
        <mxCell id="1slTTyNqEkX-o6a0FIB6-114" style="edgeStyle=none;curved=1;rounded=0;orthogonalLoop=1;jettySize=auto;html=1;entryX=0.5;entryY=0;entryDx=0;entryDy=0;entryPerimeter=0;fontSize=12;startSize=8;endSize=8;" parent="1slTTyNqEkX-o6a0FIB6-87" source="1slTTyNqEkX-o6a0FIB6-111" target="1slTTyNqEkX-o6a0FIB6-113" edge="1">
          <mxGeometry relative="1" as="geometry" />
        </mxCell>
        <mxCell id="1slTTyNqEkX-o6a0FIB6-111" value="write 0 on EN pin" style="shape=parallelogram;perimeter=parallelogramPerimeter;whiteSpace=wrap;html=1;fixedSize=1;fontSize=11.29;fontFamily=Calibri;fillColor=#e1d5e7;strokeColor=#9673a6;" parent="1slTTyNqEkX-o6a0FIB6-87" vertex="1">
          <mxGeometry x="40" y="128" width="120" height="31" as="geometry" />
        </mxCell>
        <UserObject label="wait 200 µs" Function="EN_DIO_Error_T DIO_toggle(uint8_t pinNumber, EN_DIO_PORT_T portNumber);  " tags="Flowchart" id="1slTTyNqEkX-o6a0FIB6-113">
          <mxCell style="verticalAlign=middle;align=center;overflow=width;vsdxID=274;fillColor=#d5e8d4;shape=stencil(nZBLDoAgDERP0z3SIyjew0SURgSD+Lu9kMZoXLhwN9O+tukAlrNpJg1SzDH4QW/URgNYgZTkjA4UkwJUgGXng+6DX1zLfmoymdXo17xh5zmRJ6Q42BWCfc2oJfdAr+Yv+AP9Cb7OJ3H/2JG1HNGz/84klThPVCc=);strokeColor=#82b366;spacingTop=-1;spacingBottom=-1;spacingLeft=-1;spacingRight=-1;points=[[0,0.5,0],[1,0.5,0],[0.5,1,0],[0.5,0,0]];labelBackgroundColor=none;rounded=1;html=1;whiteSpace=wrap;fontFamily=Calibri;fontSize=11.29;" parent="1slTTyNqEkX-o6a0FIB6-87" vertex="1">
            <mxGeometry x="49.5" y="180" width="101" height="23" as="geometry" />
          </mxCell>
        </UserObject>
        <mxCell id="1slTTyNqEkX-o6a0FIB6-103" style="edgeStyle=none;curved=1;rounded=0;orthogonalLoop=1;jettySize=auto;html=1;entryX=0.5;entryY=0;entryDx=0;entryDy=0;entryPerimeter=0;fontSize=12;startSize=8;endSize=8;exitX=0.5;exitY=1;exitDx=0;exitDy=0;exitPerimeter=0;" parent="1" source="1slTTyNqEkX-o6a0FIB6-118" target="1slTTyNqEkX-o6a0FIB6-105" edge="1">
          <mxGeometry relative="1" as="geometry">
            <mxPoint x="1323" y="441" as="sourcePoint" />
          </mxGeometry>
        </mxCell>
        <UserObject label="&lt;div style=&quot;font-size: 11.29px;&quot;&gt;&lt;font style=&quot;font-size: 11.29px; direction: ltr; letter-spacing: 0px; line-height: 120%; opacity: 1;&quot;&gt;END&lt;br style=&quot;font-size: 11.29px;&quot;&gt;&lt;/font&gt;&lt;/div&gt;" Function="EN_DIO_Error_T DIO_init(uint8_t pinNumber, EN_DIO_PORT_T portNumber, EN_DIO_DIRECTION_T direction);" tags="Flowchart" id="1slTTyNqEkX-o6a0FIB6-105">
          <mxCell style="verticalAlign=middle;align=center;overflow=width;vsdxID=52;fillColor=#dae8fc;shape=stencil(tVLREoIgEPwaHnEQxsl3s/9gEpSJwDko7e+DsEkze2l627vdu5uFRaxyHe8FosR5sCcxqMZ3iO0Rpcp0ApQPCLEasUpaEC3Yi2lS3fOojOhsr3HDmObyMtsVcYqS29Qh5FEfklwrM5OXeUa/yjkcAwfr7TDpiyTfXvjkMR+Vw2A998qaBac5tAKHU1hq3i4oNwjRr9ofvayt/+Rk+yX/4iWA159KpXWKxJx/z0Bopfyw+g4=);strokeColor=#6c8ebf;spacingTop=-1;spacingBottom=-1;spacingLeft=-1;spacingRight=-1;points=[[0.5,1,0],[0.5,0,0],[0,0.5,0],[1,0.5,0]];labelBackgroundColor=none;rounded=1;html=1;whiteSpace=wrap;fontFamily=Calibri;fontSize=11.29;" parent="1" vertex="1">
            <mxGeometry x="1272.5" y="470" width="101" height="38" as="geometry" />
          </mxCell>
        </UserObject>
        <mxCell id="1slTTyNqEkX-o6a0FIB6-106" value="" style="edgeStyle=none;curved=1;rounded=0;orthogonalLoop=1;jettySize=auto;html=1;fontSize=12;startSize=8;endSize=8;entryX=0.5;entryY=0;entryDx=0;entryDy=0;" parent="1" source="1slTTyNqEkX-o6a0FIB6-107" target="1slTTyNqEkX-o6a0FIB6-115" edge="1">
          <mxGeometry relative="1" as="geometry">
            <mxPoint x="1323" y="301" as="targetPoint" />
          </mxGeometry>
        </mxCell>
        <UserObject label="&lt;div style=&quot;font-size: 1px&quot;&gt;&lt;font style=&quot;font-size: 11.29px; direction: ltr; letter-spacing: 0px; line-height: 120%; opacity: 1;&quot;&gt;Generate Pulse&lt;br&gt;&lt;/font&gt;&lt;/div&gt;" Function="EN_DIO_Error_T DIO_write(uint8_t pinNumber, EN_DIO_PORT_T portNumber, uint8_t value); " tags="Flowchart" id="1slTTyNqEkX-o6a0FIB6-107">
          <mxCell style="verticalAlign=middle;align=center;overflow=width;vsdxID=235;shape=stencil(nZLRDsIgDEW/pq+GlRh9n/M/loyNRoSFodO/F9JMHWYm29u99LTkFkCWg657BSiG4N1FjdQEDfIEiGS18hSiAlmBLFvnVefdzTbs+zqRSV3dPU14cJ9IHSie7ArB/syoIfuFTsVN8B90I5hdH8UnY0vG8Ire9aUFFLjbr4iV0zN2Pvl4WDP5h15OlyWLIn/teMQ/RVYv);spacingTop=-1;spacingBottom=-1;spacingLeft=-1;spacingRight=-1;points=[[0,0.5,0],[1,0.5,0],[0.5,1,0],[0.5,0,0]];labelBackgroundColor=none;rounded=1;html=1;whiteSpace=wrap;fillColor=#ffe6cc;strokeColor=#d79b00;fontFamily=Calibri;" parent="1" vertex="1">
            <mxGeometry x="1272.5" y="239" width="101" height="35" as="geometry" />
          </mxCell>
        </UserObject>
        <mxCell id="1slTTyNqEkX-o6a0FIB6-108" value="" style="endArrow=classic;html=1;rounded=0;fontSize=12;startSize=8;endSize=8;curved=1;entryX=0.5;entryY=0;entryDx=0;entryDy=0;entryPerimeter=0;exitX=0.5;exitY=1;exitDx=0;exitDy=0;exitPerimeter=0;" parent="1" source="1slTTyNqEkX-o6a0FIB6-80" target="1slTTyNqEkX-o6a0FIB6-82" edge="1">
          <mxGeometry width="50" height="50" relative="1" as="geometry">
            <mxPoint x="1191.5" y="149" as="sourcePoint" />
            <mxPoint x="1241.5" y="99" as="targetPoint" />
          </mxGeometry>
        </mxCell>
        <mxCell id="1slTTyNqEkX-o6a0FIB6-109" value="" style="endArrow=classic;html=1;rounded=0;fontSize=12;startSize=8;endSize=8;curved=1;entryX=0.5;entryY=0;entryDx=0;entryDy=0;exitX=0.485;exitY=1.004;exitDx=0;exitDy=0;exitPerimeter=0;" parent="1" source="1slTTyNqEkX-o6a0FIB6-82" target="1slTTyNqEkX-o6a0FIB6-86" edge="1">
          <mxGeometry width="50" height="50" relative="1" as="geometry">
            <mxPoint x="1407.5" y="165" as="sourcePoint" />
            <mxPoint x="1407.5" y="192" as="targetPoint" />
          </mxGeometry>
        </mxCell>
        <mxCell id="1slTTyNqEkX-o6a0FIB6-117" style="edgeStyle=none;curved=1;rounded=0;orthogonalLoop=1;jettySize=auto;html=1;entryX=0.5;entryY=0;entryDx=0;entryDy=0;entryPerimeter=0;fontSize=12;startSize=8;endSize=8;" parent="1" source="1slTTyNqEkX-o6a0FIB6-115" target="1slTTyNqEkX-o6a0FIB6-116" edge="1">
          <mxGeometry relative="1" as="geometry" />
        </mxCell>
        <mxCell id="1slTTyNqEkX-o6a0FIB6-115" value="write lower nibble&lt;br&gt;cmd on data port" style="shape=parallelogram;perimeter=parallelogramPerimeter;whiteSpace=wrap;html=1;fixedSize=1;fontSize=11.29;fontFamily=Calibri;fillColor=#e1d5e7;strokeColor=#9673a6;" parent="1" vertex="1">
          <mxGeometry x="1263" y="303.5" width="120" height="38" as="geometry" />
        </mxCell>
        <mxCell id="1slTTyNqEkX-o6a0FIB6-119" style="edgeStyle=none;curved=1;rounded=0;orthogonalLoop=1;jettySize=auto;html=1;entryX=0.5;entryY=0;entryDx=0;entryDy=0;entryPerimeter=0;fontSize=12;startSize=8;endSize=8;" parent="1" source="1slTTyNqEkX-o6a0FIB6-116" target="1slTTyNqEkX-o6a0FIB6-118" edge="1">
          <mxGeometry relative="1" as="geometry" />
        </mxCell>
        <UserObject label="&lt;div style=&quot;font-size: 1px&quot;&gt;&lt;font style=&quot;font-size: 11.29px; direction: ltr; letter-spacing: 0px; line-height: 120%; opacity: 1;&quot;&gt;Generate Pulse&lt;br&gt;&lt;/font&gt;&lt;/div&gt;" Function="EN_DIO_Error_T DIO_write(uint8_t pinNumber, EN_DIO_PORT_T portNumber, uint8_t value); " tags="Flowchart" id="1slTTyNqEkX-o6a0FIB6-116">
          <mxCell style="verticalAlign=middle;align=center;overflow=width;vsdxID=235;shape=stencil(nZLRDsIgDEW/pq+GlRh9n/M/loyNRoSFodO/F9JMHWYm29u99LTkFkCWg657BSiG4N1FjdQEDfIEiGS18hSiAlmBLFvnVefdzTbs+zqRSV3dPU14cJ9IHSie7ArB/syoIfuFTsVN8B90I5hdH8UnY0vG8Ire9aUFFLjbr4iV0zN2Pvl4WDP5h15OlyWLIn/teMQ/RVYv);spacingTop=-1;spacingBottom=-1;spacingLeft=-1;spacingRight=-1;points=[[0,0.5,0],[1,0.5,0],[0.5,1,0],[0.5,0,0]];labelBackgroundColor=none;rounded=1;html=1;whiteSpace=wrap;fillColor=#ffe6cc;strokeColor=#d79b00;fontFamily=Calibri;" parent="1" vertex="1">
            <mxGeometry x="1272.5" y="365" width="101" height="35" as="geometry" />
          </mxCell>
        </UserObject>
        <UserObject label="wait 2 ms&lt;br&gt;(hold delay)" Function="EN_DIO_Error_T DIO_toggle(uint8_t pinNumber, EN_DIO_PORT_T portNumber);  " tags="Flowchart" id="1slTTyNqEkX-o6a0FIB6-118">
          <mxCell style="verticalAlign=middle;align=center;overflow=width;vsdxID=274;fillColor=#d5e8d4;shape=stencil(nZBLDoAgDERP0z3SIyjew0SURgSD+Lu9kMZoXLhwN9O+tukAlrNpJg1SzDH4QW/URgNYgZTkjA4UkwJUgGXng+6DX1zLfmoymdXo17xh5zmRJ6Q42BWCfc2oJfdAr+Yv+AP9Cb7OJ3H/2JG1HNGz/84klThPVCc=);strokeColor=#82b366;spacingTop=-1;spacingBottom=-1;spacingLeft=-1;spacingRight=-1;points=[[0,0.5,0],[1,0.5,0],[0.5,1,0],[0.5,0,0]];labelBackgroundColor=none;rounded=1;html=1;whiteSpace=wrap;fontFamily=Calibri;fontSize=11.29;" parent="1" vertex="1">
            <mxGeometry x="1272.5" y="416" width="101" height="33" as="geometry" />
          </mxCell>
        </UserObject>
        <UserObject label="&lt;div style=&quot;font-size: 11.29px;&quot;&gt;&lt;font style=&quot;font-size: 11.29px; direction: ltr; letter-spacing: 0px; line-height: 120%; opacity: 1;&quot;&gt;Start&lt;br style=&quot;font-size: 11.29px;&quot;&gt;&lt;/font&gt;&lt;/div&gt;" Function="EN_DIO_Error_T DIO_init(uint8_t pinNumber, EN_DIO_PORT_T portNumber, EN_DIO_DIRECTION_T direction);" tags="Flowchart" id="1slTTyNqEkX-o6a0FIB6-146">
          <mxCell style="verticalAlign=middle;align=center;overflow=width;vsdxID=30;fillColor=#dae8fc;shape=stencil(tVLREoIgEPwaHnEQxsl3s/9gEpSJwDko7e+DsEkze2l627vdu5uFRaxyHe8FosR5sCcxqMZ3iO0Rpcp0ApQPCLEasUpaEC3Yi2lS3fOojOhsr3HDmObyMtsVcYqS29Qh5FEfklwrM5OXeUa/yjkcAwfr7TDpiyTfXvjkMR+Vw2A998qaBac5tAKHU1hq3i4oNwjRr9ofvayt/+Rk+yX/4iWA159KpXWKxJx/z0Bopfyw+g4=);strokeColor=#6c8ebf;spacingTop=-1;spacingBottom=-1;spacingLeft=-1;spacingRight=-1;points=[[0.5,1,0],[0.5,0,0],[0,0.5,0],[1,0.5,0]];labelBackgroundColor=none;rounded=1;html=1;whiteSpace=wrap;fontFamily=Calibri;fontSize=11.29;" parent="1" vertex="1">
            <mxGeometry x="856.5" y="658" width="101" height="38" as="geometry" />
          </mxCell>
        </UserObject>
        <mxCell id="1slTTyNqEkX-o6a0FIB6-147" value="LCD sendChar" style="text;html=1;strokeColor=none;fillColor=none;align=center;verticalAlign=middle;whiteSpace=wrap;rounded=0;fontSize=16;fontFamily=Calibri;" parent="1" vertex="1">
          <mxGeometry x="982.5" y="613" width="169.5" height="30" as="geometry" />
        </mxCell>
        <UserObject label="&lt;span style=&quot;font-size: 11.29px;&quot;&gt;Select Data&lt;br&gt;Register&lt;br&gt;&lt;/span&gt;" Function="EN_DIO_Error_T DIO_toggle(uint8_t pinNumber, EN_DIO_PORT_T portNumber);  " tags="Flowchart" id="1slTTyNqEkX-o6a0FIB6-148">
          <mxCell style="verticalAlign=middle;align=center;overflow=width;vsdxID=274;fillColor=#d5e8d4;shape=stencil(nZBLDoAgDERP0z3SIyjew0SURgSD+Lu9kMZoXLhwN9O+tukAlrNpJg1SzDH4QW/URgNYgZTkjA4UkwJUgGXng+6DX1zLfmoymdXo17xh5zmRJ6Q42BWCfc2oJfdAr+Yv+AP9Cb7OJ3H/2JG1HNGz/84klThPVCc=);strokeColor=#82b366;spacingTop=-1;spacingBottom=-1;spacingLeft=-1;spacingRight=-1;points=[[0,0.5,0],[1,0.5,0],[0.5,1,0],[0.5,0,0]];labelBackgroundColor=none;rounded=1;html=1;whiteSpace=wrap;fontFamily=Calibri;fontSize=11.29;" parent="1" vertex="1">
            <mxGeometry x="856.5" y="723" width="101" height="33" as="geometry" />
          </mxCell>
        </UserObject>
        <mxCell id="1slTTyNqEkX-o6a0FIB6-151" value="" style="edgeStyle=none;curved=1;rounded=0;orthogonalLoop=1;jettySize=auto;html=1;fontSize=12;startSize=8;endSize=8;entryX=0.5;entryY=0;entryDx=0;entryDy=0;entryPerimeter=0;" parent="1" source="1slTTyNqEkX-o6a0FIB6-152" target="1slTTyNqEkX-o6a0FIB6-164" edge="1">
          <mxGeometry relative="1" as="geometry">
            <mxPoint x="906" y="837.5" as="targetPoint" />
          </mxGeometry>
        </mxCell>
        <mxCell id="1slTTyNqEkX-o6a0FIB6-152" value="write higher nibble&lt;br&gt;data on data port" style="shape=parallelogram;perimeter=parallelogramPerimeter;whiteSpace=wrap;html=1;fixedSize=1;fontSize=11.29;fontFamily=Calibri;fillColor=#e1d5e7;strokeColor=#9673a6;" parent="1" vertex="1">
          <mxGeometry x="846" y="777" width="120" height="38" as="geometry" />
        </mxCell>
        <mxCell id="1slTTyNqEkX-o6a0FIB6-153" value="&lt;font style=&quot;font-size: 14px;&quot;&gt;Generate Pulse&lt;br&gt;&lt;/font&gt;" style="swimlane;whiteSpace=wrap;html=1;rounded=1;fontSize=16;fontFamily=Calibri;fillColor=#ffe6cc;strokeColor=#d79b00;" parent="1" vertex="1">
          <mxGeometry x="1002.5" y="707" width="200" height="214" as="geometry">
            <mxRectangle x="-207" y="152.5" width="134" height="31" as="alternateBounds" />
          </mxGeometry>
        </mxCell>
        <mxCell id="1slTTyNqEkX-o6a0FIB6-154" style="edgeStyle=none;curved=1;rounded=0;orthogonalLoop=1;jettySize=auto;html=1;entryX=0.5;entryY=0;entryDx=0;entryDy=0;entryPerimeter=0;fontSize=12;startSize=8;endSize=8;" parent="1slTTyNqEkX-o6a0FIB6-153" target="1slTTyNqEkX-o6a0FIB6-156" edge="1">
          <mxGeometry relative="1" as="geometry">
            <mxPoint x="100" y="63" as="sourcePoint" />
          </mxGeometry>
        </mxCell>
        <mxCell id="1slTTyNqEkX-o6a0FIB6-155" style="edgeStyle=none;curved=1;rounded=0;orthogonalLoop=1;jettySize=auto;html=1;entryX=0.5;entryY=0;entryDx=0;entryDy=0;fontSize=12;startSize=8;endSize=8;" parent="1slTTyNqEkX-o6a0FIB6-153" source="1slTTyNqEkX-o6a0FIB6-156" target="1slTTyNqEkX-o6a0FIB6-159" edge="1">
          <mxGeometry relative="1" as="geometry">
            <mxPoint x="100" y="151" as="targetPoint" />
          </mxGeometry>
        </mxCell>
        <UserObject label="wait 1 µs" Function="EN_DIO_Error_T DIO_toggle(uint8_t pinNumber, EN_DIO_PORT_T portNumber);  " tags="Flowchart" id="1slTTyNqEkX-o6a0FIB6-156">
          <mxCell style="verticalAlign=middle;align=center;overflow=width;vsdxID=274;fillColor=#d5e8d4;shape=stencil(nZBLDoAgDERP0z3SIyjew0SURgSD+Lu9kMZoXLhwN9O+tukAlrNpJg1SzDH4QW/URgNYgZTkjA4UkwJUgGXng+6DX1zLfmoymdXo17xh5zmRJ6Q42BWCfc2oJfdAr+Yv+AP9Cb7OJ3H/2JG1HNGz/84klThPVCc=);strokeColor=#82b366;spacingTop=-1;spacingBottom=-1;spacingLeft=-1;spacingRight=-1;points=[[0,0.5,0],[1,0.5,0],[0.5,1,0],[0.5,0,0]];labelBackgroundColor=none;rounded=1;html=1;whiteSpace=wrap;fontFamily=Calibri;fontSize=11.29;" parent="1slTTyNqEkX-o6a0FIB6-153" vertex="1">
            <mxGeometry x="49.5" y="83" width="101" height="23" as="geometry" />
          </mxCell>
        </UserObject>
        <mxCell id="1slTTyNqEkX-o6a0FIB6-157" value="write 1 on EN pin" style="shape=parallelogram;perimeter=parallelogramPerimeter;whiteSpace=wrap;html=1;fixedSize=1;fontSize=11.29;fontFamily=Calibri;fillColor=#e1d5e7;strokeColor=#9673a6;" parent="1slTTyNqEkX-o6a0FIB6-153" vertex="1">
          <mxGeometry x="40" y="31" width="120" height="31" as="geometry" />
        </mxCell>
        <mxCell id="1slTTyNqEkX-o6a0FIB6-158" style="edgeStyle=none;curved=1;rounded=0;orthogonalLoop=1;jettySize=auto;html=1;entryX=0.5;entryY=0;entryDx=0;entryDy=0;entryPerimeter=0;fontSize=12;startSize=8;endSize=8;" parent="1slTTyNqEkX-o6a0FIB6-153" source="1slTTyNqEkX-o6a0FIB6-159" target="1slTTyNqEkX-o6a0FIB6-160" edge="1">
          <mxGeometry relative="1" as="geometry" />
        </mxCell>
        <mxCell id="1slTTyNqEkX-o6a0FIB6-159" value="write 0 on EN pin" style="shape=parallelogram;perimeter=parallelogramPerimeter;whiteSpace=wrap;html=1;fixedSize=1;fontSize=11.29;fontFamily=Calibri;fillColor=#e1d5e7;strokeColor=#9673a6;" parent="1slTTyNqEkX-o6a0FIB6-153" vertex="1">
          <mxGeometry x="40" y="128" width="120" height="31" as="geometry" />
        </mxCell>
        <UserObject label="wait 200 µs" Function="EN_DIO_Error_T DIO_toggle(uint8_t pinNumber, EN_DIO_PORT_T portNumber);  " tags="Flowchart" id="1slTTyNqEkX-o6a0FIB6-160">
          <mxCell style="verticalAlign=middle;align=center;overflow=width;vsdxID=274;fillColor=#d5e8d4;shape=stencil(nZBLDoAgDERP0z3SIyjew0SURgSD+Lu9kMZoXLhwN9O+tukAlrNpJg1SzDH4QW/URgNYgZTkjA4UkwJUgGXng+6DX1zLfmoymdXo17xh5zmRJ6Q42BWCfc2oJfdAr+Yv+AP9Cb7OJ3H/2JG1HNGz/84klThPVCc=);strokeColor=#82b366;spacingTop=-1;spacingBottom=-1;spacingLeft=-1;spacingRight=-1;points=[[0,0.5,0],[1,0.5,0],[0.5,1,0],[0.5,0,0]];labelBackgroundColor=none;rounded=1;html=1;whiteSpace=wrap;fontFamily=Calibri;fontSize=11.29;" parent="1slTTyNqEkX-o6a0FIB6-153" vertex="1">
            <mxGeometry x="49.5" y="180" width="101" height="23" as="geometry" />
          </mxCell>
        </UserObject>
        <mxCell id="1slTTyNqEkX-o6a0FIB6-161" style="edgeStyle=none;curved=1;rounded=0;orthogonalLoop=1;jettySize=auto;html=1;entryX=0.5;entryY=0;entryDx=0;entryDy=0;entryPerimeter=0;fontSize=12;startSize=8;endSize=8;exitX=0.5;exitY=1;exitDx=0;exitDy=0;exitPerimeter=0;" parent="1" source="1slTTyNqEkX-o6a0FIB6-171" target="1slTTyNqEkX-o6a0FIB6-162" edge="1">
          <mxGeometry relative="1" as="geometry">
            <mxPoint x="906" y="1044" as="sourcePoint" />
          </mxGeometry>
        </mxCell>
        <UserObject label="&lt;div style=&quot;font-size: 11.29px;&quot;&gt;&lt;font style=&quot;font-size: 11.29px; direction: ltr; letter-spacing: 0px; line-height: 120%; opacity: 1;&quot;&gt;END&lt;br style=&quot;font-size: 11.29px;&quot;&gt;&lt;/font&gt;&lt;/div&gt;" Function="EN_DIO_Error_T DIO_init(uint8_t pinNumber, EN_DIO_PORT_T portNumber, EN_DIO_DIRECTION_T direction);" tags="Flowchart" id="1slTTyNqEkX-o6a0FIB6-162">
          <mxCell style="verticalAlign=middle;align=center;overflow=width;vsdxID=52;fillColor=#dae8fc;shape=stencil(tVLREoIgEPwaHnEQxsl3s/9gEpSJwDko7e+DsEkze2l627vdu5uFRaxyHe8FosR5sCcxqMZ3iO0Rpcp0ApQPCLEasUpaEC3Yi2lS3fOojOhsr3HDmObyMtsVcYqS29Qh5FEfklwrM5OXeUa/yjkcAwfr7TDpiyTfXvjkMR+Vw2A998qaBac5tAKHU1hq3i4oNwjRr9ofvayt/+Rk+yX/4iWA159KpXWKxJx/z0Bopfyw+g4=);strokeColor=#6c8ebf;spacingTop=-1;spacingBottom=-1;spacingLeft=-1;spacingRight=-1;points=[[0.5,1,0],[0.5,0,0],[0,0.5,0],[1,0.5,0]];labelBackgroundColor=none;rounded=1;html=1;whiteSpace=wrap;fontFamily=Calibri;fontSize=11.29;" parent="1" vertex="1">
            <mxGeometry x="855.5" y="1073" width="101" height="38" as="geometry" />
          </mxCell>
        </UserObject>
        <mxCell id="1slTTyNqEkX-o6a0FIB6-163" value="" style="edgeStyle=none;curved=1;rounded=0;orthogonalLoop=1;jettySize=auto;html=1;fontSize=12;startSize=8;endSize=8;entryX=0.5;entryY=0;entryDx=0;entryDy=0;" parent="1" source="1slTTyNqEkX-o6a0FIB6-164" target="1slTTyNqEkX-o6a0FIB6-168" edge="1">
          <mxGeometry relative="1" as="geometry">
            <mxPoint x="906" y="904" as="targetPoint" />
          </mxGeometry>
        </mxCell>
        <UserObject label="&lt;div style=&quot;font-size: 1px&quot;&gt;&lt;font style=&quot;font-size: 11.29px; direction: ltr; letter-spacing: 0px; line-height: 120%; opacity: 1;&quot;&gt;Generate Pulse&lt;br&gt;&lt;/font&gt;&lt;/div&gt;" Function="EN_DIO_Error_T DIO_write(uint8_t pinNumber, EN_DIO_PORT_T portNumber, uint8_t value); " tags="Flowchart" id="1slTTyNqEkX-o6a0FIB6-164">
          <mxCell style="verticalAlign=middle;align=center;overflow=width;vsdxID=235;shape=stencil(nZLRDsIgDEW/pq+GlRh9n/M/loyNRoSFodO/F9JMHWYm29u99LTkFkCWg657BSiG4N1FjdQEDfIEiGS18hSiAlmBLFvnVefdzTbs+zqRSV3dPU14cJ9IHSie7ArB/syoIfuFTsVN8B90I5hdH8UnY0vG8Ire9aUFFLjbr4iV0zN2Pvl4WDP5h15OlyWLIn/teMQ/RVYv);spacingTop=-1;spacingBottom=-1;spacingLeft=-1;spacingRight=-1;points=[[0,0.5,0],[1,0.5,0],[0.5,1,0],[0.5,0,0]];labelBackgroundColor=none;rounded=1;html=1;whiteSpace=wrap;fillColor=#ffe6cc;strokeColor=#d79b00;fontFamily=Calibri;" parent="1" vertex="1">
            <mxGeometry x="855.5" y="842" width="101" height="35" as="geometry" />
          </mxCell>
        </UserObject>
        <mxCell id="1slTTyNqEkX-o6a0FIB6-165" value="" style="endArrow=classic;html=1;rounded=0;fontSize=12;startSize=8;endSize=8;curved=1;entryX=0.5;entryY=0;entryDx=0;entryDy=0;entryPerimeter=0;exitX=0.5;exitY=1;exitDx=0;exitDy=0;exitPerimeter=0;" parent="1" source="1slTTyNqEkX-o6a0FIB6-146" target="1slTTyNqEkX-o6a0FIB6-148" edge="1">
          <mxGeometry width="50" height="50" relative="1" as="geometry">
            <mxPoint x="774.5" y="746" as="sourcePoint" />
            <mxPoint x="824.5" y="696" as="targetPoint" />
          </mxGeometry>
        </mxCell>
        <mxCell id="1slTTyNqEkX-o6a0FIB6-166" value="" style="endArrow=classic;html=1;rounded=0;fontSize=12;startSize=8;endSize=8;curved=1;entryX=0.5;entryY=0;entryDx=0;entryDy=0;exitX=0.485;exitY=1.004;exitDx=0;exitDy=0;exitPerimeter=0;" parent="1" source="1slTTyNqEkX-o6a0FIB6-148" target="1slTTyNqEkX-o6a0FIB6-152" edge="1">
          <mxGeometry width="50" height="50" relative="1" as="geometry">
            <mxPoint x="990.5" y="762" as="sourcePoint" />
            <mxPoint x="990.5" y="789" as="targetPoint" />
          </mxGeometry>
        </mxCell>
        <mxCell id="1slTTyNqEkX-o6a0FIB6-167" style="edgeStyle=none;curved=1;rounded=0;orthogonalLoop=1;jettySize=auto;html=1;entryX=0.5;entryY=0;entryDx=0;entryDy=0;entryPerimeter=0;fontSize=12;startSize=8;endSize=8;" parent="1" source="1slTTyNqEkX-o6a0FIB6-168" target="1slTTyNqEkX-o6a0FIB6-170" edge="1">
          <mxGeometry relative="1" as="geometry" />
        </mxCell>
        <mxCell id="1slTTyNqEkX-o6a0FIB6-168" value="write lower nibble&lt;br&gt;data on data port" style="shape=parallelogram;perimeter=parallelogramPerimeter;whiteSpace=wrap;html=1;fixedSize=1;fontSize=11.29;fontFamily=Calibri;fillColor=#e1d5e7;strokeColor=#9673a6;" parent="1" vertex="1">
          <mxGeometry x="846" y="906.5" width="120" height="38" as="geometry" />
        </mxCell>
        <mxCell id="1slTTyNqEkX-o6a0FIB6-169" style="edgeStyle=none;curved=1;rounded=0;orthogonalLoop=1;jettySize=auto;html=1;entryX=0.5;entryY=0;entryDx=0;entryDy=0;entryPerimeter=0;fontSize=12;startSize=8;endSize=8;" parent="1" source="1slTTyNqEkX-o6a0FIB6-170" target="1slTTyNqEkX-o6a0FIB6-171" edge="1">
          <mxGeometry relative="1" as="geometry" />
        </mxCell>
        <UserObject label="&lt;div style=&quot;font-size: 1px&quot;&gt;&lt;font style=&quot;font-size: 11.29px; direction: ltr; letter-spacing: 0px; line-height: 120%; opacity: 1;&quot;&gt;Generate Pulse&lt;br&gt;&lt;/font&gt;&lt;/div&gt;" Function="EN_DIO_Error_T DIO_write(uint8_t pinNumber, EN_DIO_PORT_T portNumber, uint8_t value); " tags="Flowchart" id="1slTTyNqEkX-o6a0FIB6-170">
          <mxCell style="verticalAlign=middle;align=center;overflow=width;vsdxID=235;shape=stencil(nZLRDsIgDEW/pq+GlRh9n/M/loyNRoSFodO/F9JMHWYm29u99LTkFkCWg657BSiG4N1FjdQEDfIEiGS18hSiAlmBLFvnVefdzTbs+zqRSV3dPU14cJ9IHSie7ArB/syoIfuFTsVN8B90I5hdH8UnY0vG8Ire9aUFFLjbr4iV0zN2Pvl4WDP5h15OlyWLIn/teMQ/RVYv);spacingTop=-1;spacingBottom=-1;spacingLeft=-1;spacingRight=-1;points=[[0,0.5,0],[1,0.5,0],[0.5,1,0],[0.5,0,0]];labelBackgroundColor=none;rounded=1;html=1;whiteSpace=wrap;fillColor=#ffe6cc;strokeColor=#d79b00;fontFamily=Calibri;" parent="1" vertex="1">
            <mxGeometry x="855.5" y="968" width="101" height="35" as="geometry" />
          </mxCell>
        </UserObject>
        <UserObject label="wait 2 ms&lt;br&gt;(hold delay)" Function="EN_DIO_Error_T DIO_toggle(uint8_t pinNumber, EN_DIO_PORT_T portNumber);  " tags="Flowchart" id="1slTTyNqEkX-o6a0FIB6-171">
          <mxCell style="verticalAlign=middle;align=center;overflow=width;vsdxID=274;fillColor=#d5e8d4;shape=stencil(nZBLDoAgDERP0z3SIyjew0SURgSD+Lu9kMZoXLhwN9O+tukAlrNpJg1SzDH4QW/URgNYgZTkjA4UkwJUgGXng+6DX1zLfmoymdXo17xh5zmRJ6Q42BWCfc2oJfdAr+Yv+AP9Cb7OJ3H/2JG1HNGz/84klThPVCc=);strokeColor=#82b366;spacingTop=-1;spacingBottom=-1;spacingLeft=-1;spacingRight=-1;points=[[0,0.5,0],[1,0.5,0],[0.5,1,0],[0.5,0,0]];labelBackgroundColor=none;rounded=1;html=1;whiteSpace=wrap;fontFamily=Calibri;fontSize=11.29;" parent="1" vertex="1">
            <mxGeometry x="855.5" y="1019" width="101" height="33" as="geometry" />
          </mxCell>
        </UserObject>
        <UserObject label="&lt;div style=&quot;font-size: 11.29px;&quot;&gt;&lt;font style=&quot;font-size: 11.29px; direction: ltr; letter-spacing: 0px; line-height: 120%; opacity: 1;&quot;&gt;Start&lt;br style=&quot;font-size: 11.29px;&quot;&gt;&lt;/font&gt;&lt;/div&gt;" Function="EN_DIO_Error_T DIO_init(uint8_t pinNumber, EN_DIO_PORT_T portNumber, EN_DIO_DIRECTION_T direction);" tags="Flowchart" id="1slTTyNqEkX-o6a0FIB6-172">
          <mxCell style="verticalAlign=middle;align=center;overflow=width;vsdxID=30;fillColor=#dae8fc;shape=stencil(tVLREoIgEPwaHnEQxsl3s/9gEpSJwDko7e+DsEkze2l627vdu5uFRaxyHe8FosR5sCcxqMZ3iO0Rpcp0ApQPCLEasUpaEC3Yi2lS3fOojOhsr3HDmObyMtsVcYqS29Qh5FEfklwrM5OXeUa/yjkcAwfr7TDpiyTfXvjkMR+Vw2A998qaBac5tAKHU1hq3i4oNwjRr9ofvayt/+Rk+yX/4iWA159KpXWKxJx/z0Bopfyw+g4=);strokeColor=#6c8ebf;spacingTop=-1;spacingBottom=-1;spacingLeft=-1;spacingRight=-1;points=[[0.5,1,0],[0.5,0,0],[0,0.5,0],[1,0.5,0]];labelBackgroundColor=none;rounded=1;html=1;whiteSpace=wrap;fontFamily=Calibri;fontSize=11.29;" parent="1" vertex="1">
            <mxGeometry x="81.5" y="117" width="101" height="38" as="geometry" />
          </mxCell>
        </UserObject>
        <mxCell id="1slTTyNqEkX-o6a0FIB6-173" value="LCD sendString" style="text;html=1;strokeColor=none;fillColor=none;align=center;verticalAlign=middle;whiteSpace=wrap;rounded=0;fontSize=16;fontFamily=Calibri;" parent="1" vertex="1">
          <mxGeometry x="174" y="71" width="169.5" height="30" as="geometry" />
        </mxCell>
        <mxCell id="1slTTyNqEkX-o6a0FIB6-197" style="edgeStyle=none;curved=1;rounded=0;orthogonalLoop=1;jettySize=auto;html=1;entryX=0.5;entryY=0;entryDx=0;entryDy=0;fontSize=12;startSize=8;endSize=8;" parent="1" source="1slTTyNqEkX-o6a0FIB6-174" target="1slTTyNqEkX-o6a0FIB6-196" edge="1">
          <mxGeometry relative="1" as="geometry" />
        </mxCell>
        <UserObject label="getNextChar" Function="EN_DIO_Error_T DIO_toggle(uint8_t pinNumber, EN_DIO_PORT_T portNumber);  " tags="Flowchart" id="1slTTyNqEkX-o6a0FIB6-174">
          <mxCell style="verticalAlign=middle;align=center;overflow=width;vsdxID=274;fillColor=#d5e8d4;shape=stencil(nZBLDoAgDERP0z3SIyjew0SURgSD+Lu9kMZoXLhwN9O+tukAlrNpJg1SzDH4QW/URgNYgZTkjA4UkwJUgGXng+6DX1zLfmoymdXo17xh5zmRJ6Q42BWCfc2oJfdAr+Yv+AP9Cb7OJ3H/2JG1HNGz/84klThPVCc=);strokeColor=#82b366;spacingTop=-1;spacingBottom=-1;spacingLeft=-1;spacingRight=-1;points=[[0,0.5,0],[1,0.5,0],[0.5,1,0],[0.5,0,0]];labelBackgroundColor=none;rounded=1;html=1;whiteSpace=wrap;fontFamily=Calibri;fontSize=11.29;" parent="1" vertex="1">
            <mxGeometry x="81.5" y="182" width="101" height="33" as="geometry" />
          </mxCell>
        </UserObject>
        <mxCell id="1slTTyNqEkX-o6a0FIB6-189" value="" style="endArrow=classic;html=1;rounded=0;fontSize=12;startSize=8;endSize=8;curved=1;entryX=0.5;entryY=0;entryDx=0;entryDy=0;entryPerimeter=0;exitX=0.5;exitY=1;exitDx=0;exitDy=0;exitPerimeter=0;" parent="1" source="1slTTyNqEkX-o6a0FIB6-172" target="1slTTyNqEkX-o6a0FIB6-174" edge="1">
          <mxGeometry width="50" height="50" relative="1" as="geometry">
            <mxPoint x="-0.5" y="205" as="sourcePoint" />
            <mxPoint x="49.5" y="155" as="targetPoint" />
          </mxGeometry>
        </mxCell>
        <mxCell id="1slTTyNqEkX-o6a0FIB6-202" style="edgeStyle=none;curved=1;rounded=0;orthogonalLoop=1;jettySize=auto;html=1;entryX=0.5;entryY=0;entryDx=0;entryDy=0;fontSize=12;startSize=8;endSize=8;" parent="1" source="1slTTyNqEkX-o6a0FIB6-196" target="1slTTyNqEkX-o6a0FIB6-198" edge="1">
          <mxGeometry relative="1" as="geometry" />
        </mxCell>
        <mxCell id="1slTTyNqEkX-o6a0FIB6-224" style="edgeStyle=none;curved=1;rounded=0;orthogonalLoop=1;jettySize=auto;html=1;fontSize=12;startSize=8;endSize=8;entryX=0;entryY=0.5;entryDx=0;entryDy=0;entryPerimeter=0;" parent="1" source="1slTTyNqEkX-o6a0FIB6-196" target="1slTTyNqEkX-o6a0FIB6-225" edge="1">
          <mxGeometry relative="1" as="geometry">
            <mxPoint x="254.28571428571422" y="266.52750000000015" as="targetPoint" />
          </mxGeometry>
        </mxCell>
        <mxCell id="1slTTyNqEkX-o6a0FIB6-196" value="char != &#39;\0&#39;" style="rhombus;whiteSpace=wrap;html=1;fontSize=11.29;fontFamily=Calibri;fillColor=#fff2cc;strokeColor=#d6b656;" parent="1" vertex="1">
          <mxGeometry x="102.47000000000003" y="237" width="59.055" height="59.055" as="geometry" />
        </mxCell>
        <mxCell id="1slTTyNqEkX-o6a0FIB6-200" style="edgeStyle=none;curved=1;rounded=0;orthogonalLoop=1;jettySize=auto;html=1;entryX=0.5;entryY=0;entryDx=0;entryDy=0;entryPerimeter=0;fontSize=12;startSize=8;endSize=8;" parent="1" source="1slTTyNqEkX-o6a0FIB6-198" target="1slTTyNqEkX-o6a0FIB6-199" edge="1">
          <mxGeometry relative="1" as="geometry" />
        </mxCell>
        <mxCell id="1slTTyNqEkX-o6a0FIB6-218" style="edgeStyle=none;curved=1;rounded=0;orthogonalLoop=1;jettySize=auto;html=1;fontSize=12;startSize=8;endSize=8;entryX=0;entryY=0.5;entryDx=0;entryDy=0;entryPerimeter=0;" parent="1" source="1slTTyNqEkX-o6a0FIB6-198" target="1slTTyNqEkX-o6a0FIB6-219" edge="1">
          <mxGeometry relative="1" as="geometry">
            <mxPoint x="198.5999999999999" y="347.5274999999999" as="targetPoint" />
          </mxGeometry>
        </mxCell>
        <mxCell id="1slTTyNqEkX-o6a0FIB6-198" value="char == &#39;\n&#39;" style="rhombus;whiteSpace=wrap;html=1;fontSize=11.29;fillColor=#fff2cc;strokeColor=#d6b656;fontFamily=Calibri;" parent="1" vertex="1">
          <mxGeometry x="102.47000000000003" y="318" width="59.055" height="59.055" as="geometry" />
        </mxCell>
        <mxCell id="1slTTyNqEkX-o6a0FIB6-207" style="edgeStyle=none;curved=1;rounded=0;orthogonalLoop=1;jettySize=auto;html=1;entryX=0.5;entryY=0;entryDx=0;entryDy=0;fontSize=12;startSize=8;endSize=8;" parent="1" source="1slTTyNqEkX-o6a0FIB6-199" target="1slTTyNqEkX-o6a0FIB6-203" edge="1">
          <mxGeometry relative="1" as="geometry" />
        </mxCell>
        <UserObject label="&lt;div style=&quot;&quot;&gt;&lt;span style=&quot;font-size: 11.29px;&quot;&gt;LCD_sendChar&lt;/span&gt;&lt;/div&gt;" Function="EN_DIO_Error_T DIO_write(uint8_t pinNumber, EN_DIO_PORT_T portNumber, uint8_t value); " tags="Flowchart" id="1slTTyNqEkX-o6a0FIB6-199">
          <mxCell style="verticalAlign=middle;align=center;overflow=width;vsdxID=235;shape=stencil(nZLRDsIgDEW/pq+GlRh9n/M/loyNRoSFodO/F9JMHWYm29u99LTkFkCWg657BSiG4N1FjdQEDfIEiGS18hSiAlmBLFvnVefdzTbs+zqRSV3dPU14cJ9IHSie7ArB/syoIfuFTsVN8B90I5hdH8UnY0vG8Ire9aUFFLjbr4iV0zN2Pvl4WDP5h15OlyWLIn/teMQ/RVYv);spacingTop=-1;spacingBottom=-1;spacingLeft=-1;spacingRight=-1;points=[[0,0.5,0],[1,0.5,0],[0.5,1,0],[0.5,0,0]];labelBackgroundColor=none;rounded=1;html=1;whiteSpace=wrap;fillColor=#ffe6cc;strokeColor=#d79b00;fontFamily=Calibri;" parent="1" vertex="1">
            <mxGeometry x="81.5" y="414" width="101" height="35" as="geometry" />
          </mxCell>
        </UserObject>
        <mxCell id="1slTTyNqEkX-o6a0FIB6-201" value="&lt;font face=&quot;Calibri&quot; style=&quot;font-size: 11.29px;&quot;&gt;no&lt;/font&gt;" style="text;strokeColor=none;align=center;fillColor=none;html=1;verticalAlign=middle;whiteSpace=wrap;rounded=0;fontSize=16;" parent="1" vertex="1">
          <mxGeometry x="135.12999999999988" y="380" width="26.4" height="16.8" as="geometry" />
        </mxCell>
        <mxCell id="1slTTyNqEkX-o6a0FIB6-205" style="edgeStyle=none;curved=1;rounded=0;orthogonalLoop=1;jettySize=auto;html=1;entryX=0.5;entryY=0;entryDx=0;entryDy=0;fontSize=12;startSize=8;endSize=8;" parent="1" source="1slTTyNqEkX-o6a0FIB6-203" target="1slTTyNqEkX-o6a0FIB6-204" edge="1">
          <mxGeometry relative="1" as="geometry" />
        </mxCell>
        <mxCell id="1slTTyNqEkX-o6a0FIB6-209" style="edgeStyle=none;curved=1;rounded=0;orthogonalLoop=1;jettySize=auto;html=1;entryX=0;entryY=0.5;entryDx=0;entryDy=0;entryPerimeter=0;fontSize=12;startSize=8;endSize=8;" parent="1" source="1slTTyNqEkX-o6a0FIB6-203" target="1slTTyNqEkX-o6a0FIB6-208" edge="1">
          <mxGeometry relative="1" as="geometry" />
        </mxCell>
        <mxCell id="1slTTyNqEkX-o6a0FIB6-203" value="next cursor pos&lt;br&gt;==&lt;br&gt;line(1) cols + 1" style="rhombus;whiteSpace=wrap;html=1;fontSize=11.29;fillColor=#fff2cc;strokeColor=#d6b656;fontFamily=Calibri;" parent="1" vertex="1">
          <mxGeometry x="77.23000000000002" y="468" width="109.53" height="92.05" as="geometry" />
        </mxCell>
        <mxCell id="1slTTyNqEkX-o6a0FIB6-210" style="edgeStyle=none;curved=1;rounded=0;orthogonalLoop=1;jettySize=auto;html=1;fontSize=12;startSize=8;endSize=8;" parent="1" source="1slTTyNqEkX-o6a0FIB6-204" edge="1">
          <mxGeometry relative="1" as="geometry">
            <mxPoint x="131.9949999999999" y="708.5999999999999" as="targetPoint" />
          </mxGeometry>
        </mxCell>
        <mxCell id="1slTTyNqEkX-o6a0FIB6-215" style="edgeStyle=none;curved=1;rounded=0;orthogonalLoop=1;jettySize=auto;html=1;entryX=0;entryY=0.5;entryDx=0;entryDy=0;entryPerimeter=0;fontSize=12;startSize=8;endSize=8;" parent="1" source="1slTTyNqEkX-o6a0FIB6-204" target="1slTTyNqEkX-o6a0FIB6-214" edge="1">
          <mxGeometry relative="1" as="geometry" />
        </mxCell>
        <mxCell id="1slTTyNqEkX-o6a0FIB6-204" value="next cursor pos&lt;br&gt;==&lt;br&gt;line(2) cols + 1" style="rhombus;whiteSpace=wrap;html=1;fontSize=11.29;fillColor=#fff2cc;strokeColor=#d6b656;fontFamily=Calibri;" parent="1" vertex="1">
          <mxGeometry x="77.23000000000002" y="586.5" width="109.53" height="92.05" as="geometry" />
        </mxCell>
        <mxCell id="1slTTyNqEkX-o6a0FIB6-206" value="&lt;font face=&quot;Calibri&quot; style=&quot;font-size: 11.29px;&quot;&gt;no&lt;/font&gt;" style="text;strokeColor=none;align=center;fillColor=none;html=1;verticalAlign=middle;whiteSpace=wrap;rounded=0;fontSize=16;" parent="1" vertex="1">
          <mxGeometry x="140.99999999999977" y="560.05" width="26.4" height="16.8" as="geometry" />
        </mxCell>
        <mxCell id="1slTTyNqEkX-o6a0FIB6-227" style="edgeStyle=elbowEdgeStyle;rounded=0;orthogonalLoop=1;jettySize=auto;html=1;entryX=1;entryY=0.5;entryDx=0;entryDy=0;fontSize=12;startSize=8;endSize=8;" parent="1" source="1slTTyNqEkX-o6a0FIB6-208" target="1slTTyNqEkX-o6a0FIB6-226" edge="1">
          <mxGeometry relative="1" as="geometry">
            <Array as="points">
              <mxPoint x="345" y="677" />
            </Array>
          </mxGeometry>
        </mxCell>
        <UserObject label="&lt;div style=&quot;&quot;&gt;&lt;span style=&quot;font-size: 11.29px;&quot;&gt;LCD_setCursor&lt;br&gt;start of line 2&lt;/span&gt;&lt;/div&gt;" Function="EN_DIO_Error_T DIO_write(uint8_t pinNumber, EN_DIO_PORT_T portNumber, uint8_t value); " tags="Flowchart" id="1slTTyNqEkX-o6a0FIB6-208">
          <mxCell style="verticalAlign=middle;align=center;overflow=width;vsdxID=235;shape=stencil(nZLRDsIgDEW/pq+GlRh9n/M/loyNRoSFodO/F9JMHWYm29u99LTkFkCWg657BSiG4N1FjdQEDfIEiGS18hSiAlmBLFvnVefdzTbs+zqRSV3dPU14cJ9IHSie7ArB/syoIfuFTsVN8B90I5hdH8UnY0vG8Ire9aUFFLjbr4iV0zN2Pvl4WDP5h15OlyWLIn/teMQ/RVYv);spacingTop=-1;spacingBottom=-1;spacingLeft=-1;spacingRight=-1;points=[[0,0.5,0],[1,0.5,0],[0.5,1,0],[0.5,0,0]];labelBackgroundColor=none;rounded=1;html=1;whiteSpace=wrap;fillColor=#ffe6cc;strokeColor=#d79b00;fontFamily=Calibri;" parent="1" vertex="1">
            <mxGeometry x="282" y="496.53" width="101" height="35" as="geometry" />
          </mxCell>
        </UserObject>
        <mxCell id="1slTTyNqEkX-o6a0FIB6-211" value="&lt;font face=&quot;Calibri&quot; style=&quot;font-size: 11.29px;&quot;&gt;no&lt;/font&gt;" style="text;strokeColor=none;align=center;fillColor=none;html=1;verticalAlign=middle;whiteSpace=wrap;rounded=0;fontSize=16;" parent="1" vertex="1">
          <mxGeometry x="140.99999999999977" y="678.55" width="26.4" height="16.8" as="geometry" />
        </mxCell>
        <mxCell id="1slTTyNqEkX-o6a0FIB6-212" value="&lt;font face=&quot;Calibri&quot; style=&quot;font-size: 11.29px;&quot;&gt;yes&lt;/font&gt;" style="text;strokeColor=none;align=center;fillColor=none;html=1;verticalAlign=middle;whiteSpace=wrap;rounded=0;fontSize=16;" parent="1" vertex="1">
          <mxGeometry x="181.09999999999968" y="487.20000000000005" width="26.4" height="16.8" as="geometry" />
        </mxCell>
        <mxCell id="1slTTyNqEkX-o6a0FIB6-213" value="&lt;font face=&quot;Calibri&quot; style=&quot;font-size: 11.29px;&quot;&gt;yes&lt;/font&gt;" style="text;strokeColor=none;align=center;fillColor=none;html=1;verticalAlign=middle;whiteSpace=wrap;rounded=0;fontSize=16;" parent="1" vertex="1">
          <mxGeometry x="182.49999999999977" y="605" width="26.4" height="16.8" as="geometry" />
        </mxCell>
        <mxCell id="1slTTyNqEkX-o6a0FIB6-228" style="edgeStyle=none;curved=1;rounded=0;orthogonalLoop=1;jettySize=auto;html=1;fontSize=12;startSize=8;endSize=8;" parent="1" source="1slTTyNqEkX-o6a0FIB6-214" edge="1">
          <mxGeometry relative="1" as="geometry">
            <mxPoint x="345" y="632.53" as="targetPoint" />
          </mxGeometry>
        </mxCell>
        <UserObject label="&lt;div style=&quot;&quot;&gt;&lt;span style=&quot;font-size: 11.29px;&quot;&gt;LCD_setCursor&lt;br&gt;start of line 1&lt;/span&gt;&lt;/div&gt;" Function="EN_DIO_Error_T DIO_write(uint8_t pinNumber, EN_DIO_PORT_T portNumber, uint8_t value); " tags="Flowchart" id="1slTTyNqEkX-o6a0FIB6-214">
          <mxCell style="verticalAlign=middle;align=center;overflow=width;vsdxID=235;shape=stencil(nZLRDsIgDEW/pq+GlRh9n/M/loyNRoSFodO/F9JMHWYm29u99LTkFkCWg657BSiG4N1FjdQEDfIEiGS18hSiAlmBLFvnVefdzTbs+zqRSV3dPU14cJ9IHSie7ArB/syoIfuFTsVN8B90I5hdH8UnY0vG8Ire9aUFFLjbr4iV0zN2Pvl4WDP5h15OlyWLIn/teMQ/RVYv);spacingTop=-1;spacingBottom=-1;spacingLeft=-1;spacingRight=-1;points=[[0,0.5,0],[1,0.5,0],[0.5,1,0],[0.5,0,0]];labelBackgroundColor=none;rounded=1;html=1;whiteSpace=wrap;fillColor=#ffe6cc;strokeColor=#d79b00;fontFamily=Calibri;" parent="1" vertex="1">
            <mxGeometry x="216" y="615.03" width="101" height="35" as="geometry" />
          </mxCell>
        </UserObject>
        <mxCell id="1slTTyNqEkX-o6a0FIB6-217" value="&lt;font face=&quot;Calibri&quot; style=&quot;font-size: 11.29px;&quot;&gt;yes&lt;/font&gt;" style="text;strokeColor=none;align=center;fillColor=none;html=1;verticalAlign=middle;whiteSpace=wrap;rounded=0;fontSize=16;" parent="1" vertex="1">
          <mxGeometry x="167.4000000000001" y="324" width="26.4" height="16.8" as="geometry" />
        </mxCell>
        <mxCell id="1slTTyNqEkX-o6a0FIB6-221" style="edgeStyle=orthogonalEdgeStyle;rounded=0;orthogonalLoop=1;jettySize=auto;html=1;entryX=1;entryY=0.5;entryDx=0;entryDy=0;entryPerimeter=0;fontSize=12;startSize=8;endSize=8;" parent="1" source="1slTTyNqEkX-o6a0FIB6-219" target="1slTTyNqEkX-o6a0FIB6-199" edge="1">
          <mxGeometry relative="1" as="geometry">
            <Array as="points">
              <mxPoint x="332" y="348" />
              <mxPoint x="332" y="432" />
            </Array>
          </mxGeometry>
        </mxCell>
        <UserObject label="set cursor to start of next line" Function="EN_DIO_Error_T DIO_toggle(uint8_t pinNumber, EN_DIO_PORT_T portNumber);  " tags="Flowchart" id="1slTTyNqEkX-o6a0FIB6-219">
          <mxCell style="verticalAlign=middle;align=center;overflow=width;vsdxID=274;fillColor=#d5e8d4;shape=stencil(nZBLDoAgDERP0z3SIyjew0SURgSD+Lu9kMZoXLhwN9O+tukAlrNpJg1SzDH4QW/URgNYgZTkjA4UkwJUgGXng+6DX1zLfmoymdXo17xh5zmRJ6Q42BWCfc2oJfdAr+Yv+AP9Cb7OJ3H/2JG1HNGz/84klThPVCc=);strokeColor=#82b366;spacingTop=-1;spacingBottom=-1;spacingLeft=-1;spacingRight=-1;points=[[0,0.5,0],[1,0.5,0],[0.5,1,0],[0.5,0,0]];labelBackgroundColor=none;rounded=1;html=1;whiteSpace=wrap;fontFamily=Calibri;fontSize=11.29;" parent="1" vertex="1">
            <mxGeometry x="222" y="331.03" width="101" height="33" as="geometry" />
          </mxCell>
        </UserObject>
        <mxCell id="1slTTyNqEkX-o6a0FIB6-222" value="&lt;font face=&quot;Calibri&quot; style=&quot;font-size: 11.29px;&quot;&gt;yes&lt;/font&gt;" style="text;strokeColor=none;align=center;fillColor=none;html=1;verticalAlign=middle;whiteSpace=wrap;rounded=0;fontSize=16;" parent="1" vertex="1">
          <mxGeometry x="141" y="293.6" width="26.4" height="16.8" as="geometry" />
        </mxCell>
        <mxCell id="1slTTyNqEkX-o6a0FIB6-223" value="&lt;font face=&quot;Calibri&quot; style=&quot;font-size: 11.29px;&quot;&gt;no&lt;/font&gt;" style="text;strokeColor=none;align=center;fillColor=none;html=1;verticalAlign=middle;whiteSpace=wrap;rounded=0;fontSize=16;" parent="1" vertex="1">
          <mxGeometry x="167.39999999999986" y="239.60000000000002" width="26.4" height="16.8" as="geometry" />
        </mxCell>
        <UserObject label="&lt;div style=&quot;font-size: 11.29px;&quot;&gt;&lt;font style=&quot;font-size: 11.29px; direction: ltr; letter-spacing: 0px; line-height: 120%; opacity: 1;&quot;&gt;End&lt;br style=&quot;font-size: 11.29px;&quot;&gt;&lt;/font&gt;&lt;/div&gt;" Function="EN_DIO_Error_T DIO_init(uint8_t pinNumber, EN_DIO_PORT_T portNumber, EN_DIO_DIRECTION_T direction);" tags="Flowchart" id="1slTTyNqEkX-o6a0FIB6-225">
          <mxCell style="verticalAlign=middle;align=center;overflow=width;vsdxID=30;fillColor=#dae8fc;shape=stencil(tVLREoIgEPwaHnEQxsl3s/9gEpSJwDko7e+DsEkze2l627vdu5uFRaxyHe8FosR5sCcxqMZ3iO0Rpcp0ApQPCLEasUpaEC3Yi2lS3fOojOhsr3HDmObyMtsVcYqS29Qh5FEfklwrM5OXeUa/yjkcAwfr7TDpiyTfXvjkMR+Vw2A998qaBac5tAKHU1hq3i4oNwjRr9ofvayt/+Rk+yX/4iWA159KpXWKxJx/z0Bopfyw+g4=);strokeColor=#6c8ebf;spacingTop=-1;spacingBottom=-1;spacingLeft=-1;spacingRight=-1;points=[[0.5,1,0],[0.5,0,0],[0,0.5,0],[1,0.5,0]];labelBackgroundColor=none;rounded=1;html=1;whiteSpace=wrap;fontFamily=Calibri;fontSize=11.29;" parent="1" vertex="1">
            <mxGeometry x="222" y="247" width="101" height="38" as="geometry" />
          </mxCell>
        </UserObject>
        <mxCell id="1slTTyNqEkX-o6a0FIB6-229" style="edgeStyle=elbowEdgeStyle;rounded=0;orthogonalLoop=1;jettySize=auto;html=1;entryX=0;entryY=0.5;entryDx=0;entryDy=0;entryPerimeter=0;fontSize=12;startSize=8;endSize=8;" parent="1" source="1slTTyNqEkX-o6a0FIB6-226" target="1slTTyNqEkX-o6a0FIB6-174" edge="1">
          <mxGeometry relative="1" as="geometry">
            <Array as="points">
              <mxPoint x="48" y="391" />
              <mxPoint x="53" y="391" />
            </Array>
          </mxGeometry>
        </mxCell>
        <mxCell id="1slTTyNqEkX-o6a0FIB6-226" value="" style="rhombus;whiteSpace=wrap;html=1;fontSize=16;fillColor=#dae8fc;strokeColor=#6c8ebf;" parent="1" vertex="1">
          <mxGeometry x="112.30999999999995" y="709" width="39.37" height="39.37" as="geometry" />
        </mxCell>
        <UserObject label="&lt;div style=&quot;font-size: 11.29px;&quot;&gt;&lt;font style=&quot;font-size: 11.29px; direction: ltr; letter-spacing: 0px; line-height: 120%; opacity: 1;&quot;&gt;Start&lt;br style=&quot;font-size: 11.29px;&quot;&gt;&lt;/font&gt;&lt;/div&gt;" Function="EN_DIO_Error_T DIO_init(uint8_t pinNumber, EN_DIO_PORT_T portNumber, EN_DIO_DIRECTION_T direction);" tags="Flowchart" id="1slTTyNqEkX-o6a0FIB6-230">
          <mxCell style="verticalAlign=middle;align=center;overflow=width;vsdxID=30;fillColor=#dae8fc;shape=stencil(tVLREoIgEPwaHnEQxsl3s/9gEpSJwDko7e+DsEkze2l627vdu5uFRaxyHe8FosR5sCcxqMZ3iO0Rpcp0ApQPCLEasUpaEC3Yi2lS3fOojOhsr3HDmObyMtsVcYqS29Qh5FEfklwrM5OXeUa/yjkcAwfr7TDpiyTfXvjkMR+Vw2A998qaBac5tAKHU1hq3i4oNwjRr9ofvayt/+Rk+yX/4iWA159KpXWKxJx/z0Bopfyw+g4=);strokeColor=#6c8ebf;spacingTop=-1;spacingBottom=-1;spacingLeft=-1;spacingRight=-1;points=[[0.5,1,0],[0.5,0,0],[0,0.5,0],[1,0.5,0]];labelBackgroundColor=none;rounded=1;html=1;whiteSpace=wrap;fontFamily=Calibri;fontSize=11.29;" parent="1" vertex="1">
            <mxGeometry x="505.5" y="109" width="101" height="38" as="geometry" />
          </mxCell>
        </UserObject>
        <mxCell id="1slTTyNqEkX-o6a0FIB6-231" value="LCD setCursor" style="text;html=1;strokeColor=none;fillColor=none;align=center;verticalAlign=middle;whiteSpace=wrap;rounded=0;fontSize=16;fontFamily=Calibri;" parent="1" vertex="1">
          <mxGeometry x="549" y="51.950000000000045" width="169.5" height="30" as="geometry" />
        </mxCell>
        <UserObject label="&lt;div style=&quot;font-size: 11.29px;&quot;&gt;&lt;font style=&quot;font-size: 11.29px; direction: ltr; letter-spacing: 0px; line-height: 120%; opacity: 1;&quot;&gt;Return OK&lt;br style=&quot;font-size: 11.29px;&quot;&gt;&lt;/font&gt;&lt;/div&gt;" Function="EN_DIO_Error_T DIO_init(uint8_t pinNumber, EN_DIO_PORT_T portNumber, EN_DIO_DIRECTION_T direction);" tags="Flowchart" id="1slTTyNqEkX-o6a0FIB6-244">
          <mxCell style="verticalAlign=middle;align=center;overflow=width;vsdxID=52;fillColor=#d5e8d4;shape=stencil(tVLREoIgEPwaHnEQxsl3s/9gEpSJwDko7e+DsEkze2l627vdu5uFRaxyHe8FosR5sCcxqMZ3iO0Rpcp0ApQPCLEasUpaEC3Yi2lS3fOojOhsr3HDmObyMtsVcYqS29Qh5FEfklwrM5OXeUa/yjkcAwfr7TDpiyTfXvjkMR+Vw2A998qaBac5tAKHU1hq3i4oNwjRr9ofvayt/+Rk+yX/4iWA159KpXWKxJx/z0Bopfyw+g4=);strokeColor=#82b366;spacingTop=-1;spacingBottom=-1;spacingLeft=-1;spacingRight=-1;points=[[0.5,1,0],[0.5,0,0],[0,0.5,0],[1,0.5,0]];labelBackgroundColor=none;rounded=1;html=1;whiteSpace=wrap;fontFamily=Calibri;fontSize=11.29;" parent="1" vertex="1">
            <mxGeometry x="505.5" y="376" width="101" height="38" as="geometry" />
          </mxCell>
        </UserObject>
        <mxCell id="1slTTyNqEkX-o6a0FIB6-261" style="edgeStyle=none;curved=1;rounded=0;orthogonalLoop=1;jettySize=auto;html=1;entryX=0.5;entryY=0;entryDx=0;entryDy=0;entryPerimeter=0;fontSize=12;startSize=8;endSize=8;" parent="1" source="1slTTyNqEkX-o6a0FIB6-246" target="1slTTyNqEkX-o6a0FIB6-244" edge="1">
          <mxGeometry relative="1" as="geometry" />
        </mxCell>
        <UserObject label="&lt;div style=&quot;font-size: 1px&quot;&gt;&lt;font style=&quot;font-size: 11.29px; direction: ltr; letter-spacing: 0px; line-height: 120%; opacity: 1;&quot;&gt;sendCommand&lt;br&gt;(set cursor at line/col)&lt;/font&gt;&lt;/div&gt;" Function="EN_DIO_Error_T DIO_write(uint8_t pinNumber, EN_DIO_PORT_T portNumber, uint8_t value); " tags="Flowchart" id="1slTTyNqEkX-o6a0FIB6-246">
          <mxCell style="verticalAlign=middle;align=center;overflow=width;vsdxID=235;shape=stencil(nZLRDsIgDEW/pq+GlRh9n/M/loyNRoSFodO/F9JMHWYm29u99LTkFkCWg657BSiG4N1FjdQEDfIEiGS18hSiAlmBLFvnVefdzTbs+zqRSV3dPU14cJ9IHSie7ArB/syoIfuFTsVN8B90I5hdH8UnY0vG8Ire9aUFFLjbr4iV0zN2Pvl4WDP5h15OlyWLIn/teMQ/RVYv);spacingTop=-1;spacingBottom=-1;spacingLeft=-1;spacingRight=-1;points=[[0,0.5,0],[1,0.5,0],[0.5,1,0],[0.5,0,0]];labelBackgroundColor=none;rounded=1;html=1;whiteSpace=wrap;fillColor=#ffe6cc;strokeColor=#d79b00;fontFamily=Calibri;" parent="1" vertex="1">
            <mxGeometry x="486" y="308.5" width="140" height="35" as="geometry" />
          </mxCell>
        </UserObject>
        <mxCell id="1slTTyNqEkX-o6a0FIB6-247" value="" style="endArrow=classic;html=1;rounded=0;fontSize=12;startSize=8;endSize=8;curved=1;entryX=0.5;entryY=0;entryDx=0;entryDy=0;exitX=0.5;exitY=1;exitDx=0;exitDy=0;exitPerimeter=0;" parent="1" source="1slTTyNqEkX-o6a0FIB6-230" target="1slTTyNqEkX-o6a0FIB6-254" edge="1">
          <mxGeometry width="50" height="50" relative="1" as="geometry">
            <mxPoint x="423.5" y="197" as="sourcePoint" />
            <mxPoint x="556" y="174" as="targetPoint" />
          </mxGeometry>
        </mxCell>
        <mxCell id="1slTTyNqEkX-o6a0FIB6-258" style="edgeStyle=none;curved=1;rounded=0;orthogonalLoop=1;jettySize=auto;html=1;entryX=0;entryY=0.5;entryDx=0;entryDy=0;entryPerimeter=0;fontSize=12;startSize=8;endSize=8;" parent="1" source="1slTTyNqEkX-o6a0FIB6-254" target="1slTTyNqEkX-o6a0FIB6-257" edge="1">
          <mxGeometry relative="1" as="geometry" />
        </mxCell>
        <mxCell id="1slTTyNqEkX-o6a0FIB6-260" style="edgeStyle=none;curved=1;rounded=0;orthogonalLoop=1;jettySize=auto;html=1;entryX=0.5;entryY=0;entryDx=0;entryDy=0;entryPerimeter=0;fontSize=12;startSize=8;endSize=8;" parent="1" source="1slTTyNqEkX-o6a0FIB6-254" target="1slTTyNqEkX-o6a0FIB6-246" edge="1">
          <mxGeometry relative="1" as="geometry" />
        </mxCell>
        <mxCell id="1slTTyNqEkX-o6a0FIB6-254" value="line &amp;gt; linesCount&lt;br&gt;or&lt;br&gt;col &amp;gt; colCount" style="rhombus;whiteSpace=wrap;html=1;fontSize=11.29;fillColor=#fff2cc;strokeColor=#d6b656;fontFamily=Calibri;" parent="1" vertex="1">
          <mxGeometry x="495.87" y="179" width="120.26" height="102.05" as="geometry" />
        </mxCell>
        <mxCell id="1slTTyNqEkX-o6a0FIB6-256" value="&lt;font face=&quot;Calibri&quot; style=&quot;font-size: 11.29px;&quot;&gt;yes&lt;/font&gt;" style="text;strokeColor=none;align=center;fillColor=none;html=1;verticalAlign=middle;whiteSpace=wrap;rounded=0;fontSize=16;" parent="1" vertex="1">
          <mxGeometry x="627.5" y="207.20000000000005" width="26.4" height="16.8" as="geometry" />
        </mxCell>
        <UserObject label="&lt;div style=&quot;font-size: 11.29px;&quot;&gt;&lt;font style=&quot;font-size: 11.29px; direction: ltr; letter-spacing: 0px; line-height: 120%; opacity: 1;&quot;&gt;Return NOK&lt;br style=&quot;font-size: 11.29px;&quot;&gt;&lt;/font&gt;&lt;/div&gt;" Function="EN_DIO_Error_T DIO_init(uint8_t pinNumber, EN_DIO_PORT_T portNumber, EN_DIO_DIRECTION_T direction);" tags="Flowchart" id="1slTTyNqEkX-o6a0FIB6-257">
          <mxCell style="verticalAlign=middle;align=center;overflow=width;vsdxID=30;fillColor=#f8cecc;shape=stencil(tVLREoIgEPwaHnEQxsl3s/9gEpSJwDko7e+DsEkze2l627vdu5uFRaxyHe8FosR5sCcxqMZ3iO0Rpcp0ApQPCLEasUpaEC3Yi2lS3fOojOhsr3HDmObyMtsVcYqS29Qh5FEfklwrM5OXeUa/yjkcAwfr7TDpiyTfXvjkMR+Vw2A998qaBac5tAKHU1hq3i4oNwjRr9ofvayt/+Rk+yX/4iWA159KpXWKxJx/z0Bopfyw+g4=);strokeColor=#b85450;spacingTop=-1;spacingBottom=-1;spacingLeft=-1;spacingRight=-1;points=[[0.5,1,0],[0.5,0,0],[0,0.5,0],[1,0.5,0]];labelBackgroundColor=none;rounded=1;html=1;whiteSpace=wrap;fontFamily=Calibri;fontSize=11.29;" parent="1" vertex="1">
            <mxGeometry x="668.5" y="211.02999999999997" width="101" height="38" as="geometry" />
          </mxCell>
        </UserObject>
        <mxCell id="1slTTyNqEkX-o6a0FIB6-259" value="&lt;font face=&quot;Calibri&quot; style=&quot;font-size: 11.29px;&quot;&gt;no&lt;/font&gt;" style="text;strokeColor=none;align=center;fillColor=none;html=1;verticalAlign=middle;whiteSpace=wrap;rounded=0;fontSize=16;" parent="1" vertex="1">
          <mxGeometry x="565.5" y="278" width="26.4" height="16.8" as="geometry" />
        </mxCell>
        <UserObject label="&lt;div style=&quot;font-size: 11.29px;&quot;&gt;&lt;font style=&quot;font-size: 11.29px; direction: ltr; letter-spacing: 0px; line-height: 120%; opacity: 1;&quot;&gt;Start&lt;br style=&quot;font-size: 11.29px;&quot;&gt;&lt;/font&gt;&lt;/div&gt;" Function="EN_DIO_Error_T DIO_init(uint8_t pinNumber, EN_DIO_PORT_T portNumber, EN_DIO_DIRECTION_T direction);" tags="Flowchart" id="1slTTyNqEkX-o6a0FIB6-262">
          <mxCell style="verticalAlign=middle;align=center;overflow=width;vsdxID=30;fillColor=#dae8fc;shape=stencil(tVLREoIgEPwaHnEQxsl3s/9gEpSJwDko7e+DsEkze2l627vdu5uFRaxyHe8FosR5sCcxqMZ3iO0Rpcp0ApQPCLEasUpaEC3Yi2lS3fOojOhsr3HDmObyMtsVcYqS29Qh5FEfklwrM5OXeUa/yjkcAwfr7TDpiyTfXvjkMR+Vw2A998qaBac5tAKHU1hq3i4oNwjRr9ofvayt/+Rk+yX/4iWA159KpXWKxJx/z0Bopfyw+g4=);strokeColor=#6c8ebf;spacingTop=-1;spacingBottom=-1;spacingLeft=-1;spacingRight=-1;points=[[0.5,1,0],[0.5,0,0],[0,0.5,0],[1,0.5,0]];labelBackgroundColor=none;rounded=1;html=1;whiteSpace=wrap;fontFamily=Calibri;fontSize=11.29;" parent="1" vertex="1">
            <mxGeometry x="528.2" y="693" width="101" height="38" as="geometry" />
          </mxCell>
        </UserObject>
        <mxCell id="1slTTyNqEkX-o6a0FIB6-263" value="LCD clear" style="text;html=1;strokeColor=none;fillColor=none;align=center;verticalAlign=middle;whiteSpace=wrap;rounded=0;fontSize=16;fontFamily=Calibri;" parent="1" vertex="1">
          <mxGeometry x="493.95000000000005" y="635.95" width="169.5" height="30" as="geometry" />
        </mxCell>
        <mxCell id="1slTTyNqEkX-o6a0FIB6-276" style="edgeStyle=none;curved=1;rounded=0;orthogonalLoop=1;jettySize=auto;html=1;entryX=0.5;entryY=0;entryDx=0;entryDy=0;entryPerimeter=0;fontSize=12;startSize=8;endSize=8;" parent="1" source="1slTTyNqEkX-o6a0FIB6-266" target="1slTTyNqEkX-o6a0FIB6-275" edge="1">
          <mxGeometry relative="1" as="geometry" />
        </mxCell>
        <UserObject label="&lt;div style=&quot;font-size: 1px&quot;&gt;&lt;font style=&quot;font-size: 11.29px; direction: ltr; letter-spacing: 0px; line-height: 120%; opacity: 1;&quot;&gt;sendCommand&lt;br&gt;(Clear)&lt;/font&gt;&lt;/div&gt;" Function="EN_DIO_Error_T DIO_write(uint8_t pinNumber, EN_DIO_PORT_T portNumber, uint8_t value); " tags="Flowchart" id="1slTTyNqEkX-o6a0FIB6-266">
          <mxCell style="verticalAlign=middle;align=center;overflow=width;vsdxID=235;shape=stencil(nZLRDsIgDEW/pq+GlRh9n/M/loyNRoSFodO/F9JMHWYm29u99LTkFkCWg657BSiG4N1FjdQEDfIEiGS18hSiAlmBLFvnVefdzTbs+zqRSV3dPU14cJ9IHSie7ArB/syoIfuFTsVN8B90I5hdH8UnY0vG8Ire9aUFFLjbr4iV0zN2Pvl4WDP5h15OlyWLIn/teMQ/RVYv);spacingTop=-1;spacingBottom=-1;spacingLeft=-1;spacingRight=-1;points=[[0,0.5,0],[1,0.5,0],[0.5,1,0],[0.5,0,0]];labelBackgroundColor=none;rounded=1;html=1;whiteSpace=wrap;fillColor=#ffe6cc;strokeColor=#d79b00;fontFamily=Calibri;" parent="1" vertex="1">
            <mxGeometry x="508.70000000000005" y="771.5" width="140" height="35" as="geometry" />
          </mxCell>
        </UserObject>
        <mxCell id="1slTTyNqEkX-o6a0FIB6-267" value="" style="endArrow=classic;html=1;rounded=0;fontSize=12;startSize=8;endSize=8;curved=1;entryX=0.5;entryY=0;entryDx=0;entryDy=0;exitX=0.5;exitY=1;exitDx=0;exitDy=0;exitPerimeter=0;entryPerimeter=0;" parent="1" source="1slTTyNqEkX-o6a0FIB6-262" target="1slTTyNqEkX-o6a0FIB6-266" edge="1">
          <mxGeometry width="50" height="50" relative="1" as="geometry">
            <mxPoint x="446.20000000000005" y="781" as="sourcePoint" />
            <mxPoint x="578.7" y="763" as="targetPoint" />
          </mxGeometry>
        </mxCell>
        <UserObject label="&lt;div style=&quot;font-size: 11.29px;&quot;&gt;&lt;font style=&quot;font-size: 11.29px; direction: ltr; letter-spacing: 0px; line-height: 120%; opacity: 1;&quot;&gt;End&lt;br style=&quot;font-size: 11.29px;&quot;&gt;&lt;/font&gt;&lt;/div&gt;" Function="EN_DIO_Error_T DIO_init(uint8_t pinNumber, EN_DIO_PORT_T portNumber, EN_DIO_DIRECTION_T direction);" tags="Flowchart" id="1slTTyNqEkX-o6a0FIB6-275">
          <mxCell style="verticalAlign=middle;align=center;overflow=width;vsdxID=30;fillColor=#dae8fc;shape=stencil(tVLREoIgEPwaHnEQxsl3s/9gEpSJwDko7e+DsEkze2l627vdu5uFRaxyHe8FosR5sCcxqMZ3iO0Rpcp0ApQPCLEasUpaEC3Yi2lS3fOojOhsr3HDmObyMtsVcYqS29Qh5FEfklwrM5OXeUa/yjkcAwfr7TDpiyTfXvjkMR+Vw2A998qaBac5tAKHU1hq3i4oNwjRr9ofvayt/+Rk+yX/4iWA159KpXWKxJx/z0Bopfyw+g4=);strokeColor=#6c8ebf;spacingTop=-1;spacingBottom=-1;spacingLeft=-1;spacingRight=-1;points=[[0.5,1,0],[0.5,0,0],[0,0.5,0],[1,0.5,0]];labelBackgroundColor=none;rounded=1;html=1;whiteSpace=wrap;fontFamily=Calibri;fontSize=11.29;" parent="1" vertex="1">
            <mxGeometry x="528.2" y="839" width="101" height="38" as="geometry" />
          </mxCell>
        </UserObject>
        <UserObject label="&lt;div style=&quot;font-size: 11.29px;&quot;&gt;&lt;font style=&quot;font-size: 11.29px; direction: ltr; letter-spacing: 0px; line-height: 120%; opacity: 1;&quot;&gt;Start&lt;br style=&quot;font-size: 11.29px;&quot;&gt;&lt;/font&gt;&lt;/div&gt;" Function="EN_DIO_Error_T DIO_init(uint8_t pinNumber, EN_DIO_PORT_T portNumber, EN_DIO_DIRECTION_T direction);" tags="Flowchart" id="1slTTyNqEkX-o6a0FIB6-277">
          <mxCell style="verticalAlign=middle;align=center;overflow=width;vsdxID=30;fillColor=#dae8fc;shape=stencil(tVLREoIgEPwaHnEQxsl3s/9gEpSJwDko7e+DsEkze2l627vdu5uFRaxyHe8FosR5sCcxqMZ3iO0Rpcp0ApQPCLEasUpaEC3Yi2lS3fOojOhsr3HDmObyMtsVcYqS29Qh5FEfklwrM5OXeUa/yjkcAwfr7TDpiyTfXvjkMR+Vw2A998qaBac5tAKHU1hq3i4oNwjRr9ofvayt/+Rk+yX/4iWA159KpXWKxJx/z0Bopfyw+g4=);strokeColor=#6c8ebf;spacingTop=-1;spacingBottom=-1;spacingLeft=-1;spacingRight=-1;points=[[0.5,1,0],[0.5,0,0],[0,0.5,0],[1,0.5,0]];labelBackgroundColor=none;rounded=1;html=1;whiteSpace=wrap;fontFamily=Calibri;fontSize=11.29;" parent="1" vertex="1">
            <mxGeometry x="1321.5" y="662.05" width="101" height="38" as="geometry" />
          </mxCell>
        </UserObject>
        <mxCell id="1slTTyNqEkX-o6a0FIB6-278" value="LCD storeCustomChar" style="text;html=1;strokeColor=none;fillColor=none;align=center;verticalAlign=middle;whiteSpace=wrap;rounded=0;fontSize=16;fontFamily=Calibri;" parent="1" vertex="1">
          <mxGeometry x="1365" y="605" width="169.5" height="30" as="geometry" />
        </mxCell>
        <mxCell id="1slTTyNqEkX-o6a0FIB6-282" value="" style="endArrow=classic;html=1;rounded=0;fontSize=12;startSize=8;endSize=8;curved=1;entryX=0.5;entryY=0;entryDx=0;entryDy=0;exitX=0.5;exitY=1;exitDx=0;exitDy=0;exitPerimeter=0;" parent="1" source="1slTTyNqEkX-o6a0FIB6-277" target="1slTTyNqEkX-o6a0FIB6-291" edge="1">
          <mxGeometry width="50" height="50" relative="1" as="geometry">
            <mxPoint x="1239.5" y="750.05" as="sourcePoint" />
            <mxPoint x="1372" y="729" as="targetPoint" />
          </mxGeometry>
        </mxCell>
        <mxCell id="1slTTyNqEkX-o6a0FIB6-299" style="edgeStyle=none;curved=1;rounded=0;orthogonalLoop=1;jettySize=auto;html=1;entryX=0.5;entryY=0;entryDx=0;entryDy=0;entryPerimeter=0;fontSize=12;startSize=8;endSize=8;" parent="1" source="1slTTyNqEkX-o6a0FIB6-289" target="1slTTyNqEkX-o6a0FIB6-294" edge="1">
          <mxGeometry relative="1" as="geometry" />
        </mxCell>
        <UserObject label="&lt;div style=&quot;&quot;&gt;&lt;span style=&quot;font-size: 11.29px;&quot;&gt;send bitmap bytes&lt;/span&gt;&lt;/div&gt;" Function="EN_DIO_Error_T DIO_port_toggle(EN_DIO_PORT_T portNumber, uint8_t mask)" tags="Flowchart" id="1slTTyNqEkX-o6a0FIB6-289">
          <mxCell style="verticalAlign=middle;align=center;overflow=width;vsdxID=352;fillColor=#d5e8d4;shape=stencil(nZBLDoAgDERP0z3SIyjew0SURgSD+Lu9kMZoXLhwN9O+tukAlrNpJg1SzDH4QW/URgNYgZTkjA4UkwJUgGXng+6DX1zLfmoymdXo17xh5zmRJ6Q42BWCfc2oJfdAr+Yv+AP9Cb7OJ3H/2JG1HNGz/84klThPVCc=);strokeColor=#82b366;spacingTop=-1;spacingBottom=-1;spacingLeft=-1;spacingRight=-1;points=[[1,0.5,0],[0.5,0.5,0],[0.5,0,0]];labelBackgroundColor=none;rounded=1;html=1;whiteSpace=wrap;fontFamily=Calibri;" parent="1" vertex="1">
            <mxGeometry x="1320.75" y="928" width="102.5" height="42" as="geometry" />
          </mxCell>
        </UserObject>
        <mxCell id="1slTTyNqEkX-o6a0FIB6-298" style="edgeStyle=none;curved=1;rounded=0;orthogonalLoop=1;jettySize=auto;html=1;entryX=0.5;entryY=0;entryDx=0;entryDy=0;entryPerimeter=0;fontSize=12;startSize=8;endSize=8;" parent="1" source="1slTTyNqEkX-o6a0FIB6-290" target="1slTTyNqEkX-o6a0FIB6-289" edge="1">
          <mxGeometry relative="1" as="geometry" />
        </mxCell>
        <UserObject label="&lt;div style=&quot;font-size: 1px&quot;&gt;&lt;font style=&quot;font-size: 11.29px; direction: ltr; letter-spacing: 0px; line-height: 120%; opacity: 1;&quot;&gt;sendCommand&lt;br&gt;(set CGRAM address)&lt;/font&gt;&lt;/div&gt;" Function="EN_DIO_Error_T DIO_write(uint8_t pinNumber, EN_DIO_PORT_T portNumber, uint8_t value); " tags="Flowchart" id="1slTTyNqEkX-o6a0FIB6-290">
          <mxCell style="verticalAlign=middle;align=center;overflow=width;vsdxID=235;shape=stencil(nZLRDsIgDEW/pq+GlRh9n/M/loyNRoSFodO/F9JMHWYm29u99LTkFkCWg657BSiG4N1FjdQEDfIEiGS18hSiAlmBLFvnVefdzTbs+zqRSV3dPU14cJ9IHSie7ArB/syoIfuFTsVN8B90I5hdH8UnY0vG8Ire9aUFFLjbr4iV0zN2Pvl4WDP5h15OlyWLIn/teMQ/RVYv);spacingTop=-1;spacingBottom=-1;spacingLeft=-1;spacingRight=-1;points=[[0,0.5,0],[1,0.5,0],[0.5,1,0],[0.5,0,0]];labelBackgroundColor=none;rounded=1;html=1;whiteSpace=wrap;fillColor=#ffe6cc;strokeColor=#d79b00;fontFamily=Calibri;" parent="1" vertex="1">
            <mxGeometry x="1302" y="866" width="140" height="35" as="geometry" />
          </mxCell>
        </UserObject>
        <mxCell id="1slTTyNqEkX-o6a0FIB6-296" style="edgeStyle=none;curved=1;rounded=0;orthogonalLoop=1;jettySize=auto;html=1;entryX=0;entryY=0.5;entryDx=0;entryDy=0;entryPerimeter=0;fontSize=12;startSize=8;endSize=8;" parent="1" source="1slTTyNqEkX-o6a0FIB6-291" target="1slTTyNqEkX-o6a0FIB6-295" edge="1">
          <mxGeometry relative="1" as="geometry" />
        </mxCell>
        <mxCell id="1slTTyNqEkX-o6a0FIB6-297" style="edgeStyle=none;curved=1;rounded=0;orthogonalLoop=1;jettySize=auto;html=1;entryX=0.5;entryY=0;entryDx=0;entryDy=0;entryPerimeter=0;fontSize=12;startSize=8;endSize=8;" parent="1" source="1slTTyNqEkX-o6a0FIB6-291" target="1slTTyNqEkX-o6a0FIB6-290" edge="1">
          <mxGeometry relative="1" as="geometry" />
        </mxCell>
        <mxCell id="1slTTyNqEkX-o6a0FIB6-291" value="location &amp;gt; max&lt;br&gt;CGRAM locations" style="rhombus;whiteSpace=wrap;html=1;fontSize=11.29;fillColor=#fff2cc;strokeColor=#d6b656;fontFamily=Calibri;" parent="1" vertex="1">
          <mxGeometry x="1311.87" y="729.95" width="120.26" height="102.05" as="geometry" />
        </mxCell>
        <mxCell id="1slTTyNqEkX-o6a0FIB6-292" value="&lt;font face=&quot;Calibri&quot; style=&quot;font-size: 11.29px;&quot;&gt;yes&lt;/font&gt;" style="text;strokeColor=none;align=center;fillColor=none;html=1;verticalAlign=middle;whiteSpace=wrap;rounded=0;fontSize=16;" parent="1" vertex="1">
          <mxGeometry x="1437.6" y="758" width="26.4" height="16.8" as="geometry" />
        </mxCell>
        <mxCell id="1slTTyNqEkX-o6a0FIB6-293" value="&lt;font face=&quot;Calibri&quot; style=&quot;font-size: 11.29px;&quot;&gt;no&lt;/font&gt;" style="text;strokeColor=none;align=center;fillColor=none;html=1;verticalAlign=middle;whiteSpace=wrap;rounded=0;fontSize=16;" parent="1" vertex="1">
          <mxGeometry x="1378" y="832" width="26.4" height="16.8" as="geometry" />
        </mxCell>
        <UserObject label="&lt;div style=&quot;font-size: 11.29px;&quot;&gt;&lt;font style=&quot;font-size: 11.29px; direction: ltr; letter-spacing: 0px; line-height: 120%; opacity: 1;&quot;&gt;Return OK&lt;br style=&quot;font-size: 11.29px;&quot;&gt;&lt;/font&gt;&lt;/div&gt;" Function="EN_DIO_Error_T DIO_init(uint8_t pinNumber, EN_DIO_PORT_T portNumber, EN_DIO_DIRECTION_T direction);" tags="Flowchart" id="1slTTyNqEkX-o6a0FIB6-294">
          <mxCell style="verticalAlign=middle;align=center;overflow=width;vsdxID=52;fillColor=#d5e8d4;shape=stencil(tVLREoIgEPwaHnEQxsl3s/9gEpSJwDko7e+DsEkze2l627vdu5uFRaxyHe8FosR5sCcxqMZ3iO0Rpcp0ApQPCLEasUpaEC3Yi2lS3fOojOhsr3HDmObyMtsVcYqS29Qh5FEfklwrM5OXeUa/yjkcAwfr7TDpiyTfXvjkMR+Vw2A998qaBac5tAKHU1hq3i4oNwjRr9ofvayt/+Rk+yX/4iWA159KpXWKxJx/z0Bopfyw+g4=);strokeColor=#82b366;spacingTop=-1;spacingBottom=-1;spacingLeft=-1;spacingRight=-1;points=[[0.5,1,0],[0.5,0,0],[0,0.5,0],[1,0.5,0]];labelBackgroundColor=none;rounded=1;html=1;whiteSpace=wrap;fontFamily=Calibri;fontSize=11.29;" parent="1" vertex="1">
            <mxGeometry x="1321.5" y="998" width="101" height="38" as="geometry" />
          </mxCell>
        </UserObject>
        <UserObject label="&lt;div style=&quot;font-size: 11.29px;&quot;&gt;&lt;font style=&quot;font-size: 11.29px; direction: ltr; letter-spacing: 0px; line-height: 120%; opacity: 1;&quot;&gt;Return NOK&lt;br style=&quot;font-size: 11.29px;&quot;&gt;&lt;/font&gt;&lt;/div&gt;" Function="EN_DIO_Error_T DIO_init(uint8_t pinNumber, EN_DIO_PORT_T portNumber, EN_DIO_DIRECTION_T direction);" tags="Flowchart" id="1slTTyNqEkX-o6a0FIB6-295">
          <mxCell style="verticalAlign=middle;align=center;overflow=width;vsdxID=30;fillColor=#f8cecc;shape=stencil(tVLREoIgEPwaHnEQxsl3s/9gEpSJwDko7e+DsEkze2l627vdu5uFRaxyHe8FosR5sCcxqMZ3iO0Rpcp0ApQPCLEasUpaEC3Yi2lS3fOojOhsr3HDmObyMtsVcYqS29Qh5FEfklwrM5OXeUa/yjkcAwfr7TDpiyTfXvjkMR+Vw2A998qaBac5tAKHU1hq3i4oNwjRr9ofvayt/+Rk+yX/4iWA159KpXWKxJx/z0Bopfyw+g4=);strokeColor=#b85450;spacingTop=-1;spacingBottom=-1;spacingLeft=-1;spacingRight=-1;points=[[0.5,1,0],[0.5,0,0],[0,0.5,0],[1,0.5,0]];labelBackgroundColor=none;rounded=1;html=1;whiteSpace=wrap;fontFamily=Calibri;fontSize=11.29;" parent="1" vertex="1">
            <mxGeometry x="1479" y="761.97" width="101" height="38" as="geometry" />
          </mxCell>
        </UserObject>
        <UserObject label="&lt;div style=&quot;font-size: 11.29px;&quot;&gt;&lt;font style=&quot;font-size: 11.29px; direction: ltr; letter-spacing: 0px; line-height: 120%; opacity: 1;&quot;&gt;Start&lt;br style=&quot;font-size: 11.29px;&quot;&gt;&lt;/font&gt;&lt;/div&gt;" Function="EN_DIO_Error_T DIO_init(uint8_t pinNumber, EN_DIO_PORT_T portNumber, EN_DIO_DIRECTION_T direction);" tags="Flowchart" id="K4DSWwU0kknKv7rk9CpI-1">
          <mxCell style="verticalAlign=middle;align=center;overflow=width;vsdxID=30;fillColor=#dae8fc;shape=stencil(tVLREoIgEPwaHnEQxsl3s/9gEpSJwDko7e+DsEkze2l627vdu5uFRaxyHe8FosR5sCcxqMZ3iO0Rpcp0ApQPCLEasUpaEC3Yi2lS3fOojOhsr3HDmObyMtsVcYqS29Qh5FEfklwrM5OXeUa/yjkcAwfr7TDpiyTfXvjkMR+Vw2A998qaBac5tAKHU1hq3i4oNwjRr9ofvayt/+Rk+yX/4iWA159KpXWKxJx/z0Bopfyw+g4=);strokeColor=#6c8ebf;spacingTop=-1;spacingBottom=-1;spacingLeft=-1;spacingRight=-1;points=[[0.5,1,0],[0.5,0,0],[0,0.5,0],[1,0.5,0]];labelBackgroundColor=none;rounded=1;html=1;whiteSpace=wrap;fontFamily=Calibri;fontSize=11.29;" vertex="1" parent="1">
            <mxGeometry x="154.25000000000006" y="872.05" width="101" height="38" as="geometry" />
          </mxCell>
        </UserObject>
        <mxCell id="K4DSWwU0kknKv7rk9CpI-2" value="LCD changeCursor" style="text;html=1;strokeColor=none;fillColor=none;align=center;verticalAlign=middle;whiteSpace=wrap;rounded=0;fontSize=16;fontFamily=Calibri;" vertex="1" parent="1">
          <mxGeometry x="120.00000000000006" y="815" width="169.5" height="30" as="geometry" />
        </mxCell>
        <mxCell id="K4DSWwU0kknKv7rk9CpI-3" style="edgeStyle=none;curved=1;rounded=0;orthogonalLoop=1;jettySize=auto;html=1;entryX=0.5;entryY=0;entryDx=0;entryDy=0;entryPerimeter=0;fontSize=12;startSize=8;endSize=8;" edge="1" parent="1" source="K4DSWwU0kknKv7rk9CpI-4" target="K4DSWwU0kknKv7rk9CpI-6">
          <mxGeometry relative="1" as="geometry" />
        </mxCell>
        <UserObject label="&lt;div style=&quot;font-size: 1px&quot;&gt;&lt;font style=&quot;font-size: 11.29px; direction: ltr; letter-spacing: 0px; line-height: 120%; opacity: 1;&quot;&gt;sendCommand&lt;br&gt;(show/hide cursor)&lt;/font&gt;&lt;/div&gt;" Function="EN_DIO_Error_T DIO_write(uint8_t pinNumber, EN_DIO_PORT_T portNumber, uint8_t value); " tags="Flowchart" id="K4DSWwU0kknKv7rk9CpI-4">
          <mxCell style="verticalAlign=middle;align=center;overflow=width;vsdxID=235;shape=stencil(nZLRDsIgDEW/pq+GlRh9n/M/loyNRoSFodO/F9JMHWYm29u99LTkFkCWg657BSiG4N1FjdQEDfIEiGS18hSiAlmBLFvnVefdzTbs+zqRSV3dPU14cJ9IHSie7ArB/syoIfuFTsVN8B90I5hdH8UnY0vG8Ire9aUFFLjbr4iV0zN2Pvl4WDP5h15OlyWLIn/teMQ/RVYv);spacingTop=-1;spacingBottom=-1;spacingLeft=-1;spacingRight=-1;points=[[0,0.5,0],[1,0.5,0],[0.5,1,0],[0.5,0,0]];labelBackgroundColor=none;rounded=1;html=1;whiteSpace=wrap;fillColor=#ffe6cc;strokeColor=#d79b00;fontFamily=Calibri;" vertex="1" parent="1">
            <mxGeometry x="134.75000000000006" y="950.55" width="140" height="35" as="geometry" />
          </mxCell>
        </UserObject>
        <mxCell id="K4DSWwU0kknKv7rk9CpI-5" value="" style="endArrow=classic;html=1;rounded=0;fontSize=12;startSize=8;endSize=8;curved=1;entryX=0.5;entryY=0;entryDx=0;entryDy=0;exitX=0.5;exitY=1;exitDx=0;exitDy=0;exitPerimeter=0;entryPerimeter=0;" edge="1" parent="1" source="K4DSWwU0kknKv7rk9CpI-1" target="K4DSWwU0kknKv7rk9CpI-4">
          <mxGeometry width="50" height="50" relative="1" as="geometry">
            <mxPoint x="72.25000000000006" y="960.05" as="sourcePoint" />
            <mxPoint x="204.75000000000006" y="942.05" as="targetPoint" />
          </mxGeometry>
        </mxCell>
        <UserObject label="&lt;div style=&quot;font-size: 11.29px;&quot;&gt;&lt;font style=&quot;font-size: 11.29px; direction: ltr; letter-spacing: 0px; line-height: 120%; opacity: 1;&quot;&gt;End&lt;br style=&quot;font-size: 11.29px;&quot;&gt;&lt;/font&gt;&lt;/div&gt;" Function="EN_DIO_Error_T DIO_init(uint8_t pinNumber, EN_DIO_PORT_T portNumber, EN_DIO_DIRECTION_T direction);" tags="Flowchart" id="K4DSWwU0kknKv7rk9CpI-6">
          <mxCell style="verticalAlign=middle;align=center;overflow=width;vsdxID=30;fillColor=#dae8fc;shape=stencil(tVLREoIgEPwaHnEQxsl3s/9gEpSJwDko7e+DsEkze2l627vdu5uFRaxyHe8FosR5sCcxqMZ3iO0Rpcp0ApQPCLEasUpaEC3Yi2lS3fOojOhsr3HDmObyMtsVcYqS29Qh5FEfklwrM5OXeUa/yjkcAwfr7TDpiyTfXvjkMR+Vw2A998qaBac5tAKHU1hq3i4oNwjRr9ofvayt/+Rk+yX/4iWA159KpXWKxJx/z0Bopfyw+g4=);strokeColor=#6c8ebf;spacingTop=-1;spacingBottom=-1;spacingLeft=-1;spacingRight=-1;points=[[0.5,1,0],[0.5,0,0],[0,0.5,0],[1,0.5,0]];labelBackgroundColor=none;rounded=1;html=1;whiteSpace=wrap;fontFamily=Calibri;fontSize=11.29;" vertex="1" parent="1">
            <mxGeometry x="154.25000000000006" y="1018.05" width="101" height="38" as="geometry" />
          </mxCell>
        </UserObject>
      </root>
    </mxGraphModel>
  </diagram>
</mxfile>
